<svg xmlns="http://www.w3.org/2000/svg" xmlns:xlink="http://www.w3.org/1999/xlink" width="500" zoomAndPan="magnify" viewBox="0 0 375 374.999991" height="500" preserveAspectRatio="xMidYMid meet" version="1.0"><defs><clipPath id="9b967bdc26"><rect x="0" width="375" y="0" height="375"/></clipPath></defs><g transform="matrix(1, 0, 0, 1, 0, 0)"><g clip-path="url(#9b967bdc26)"><path fill="#933eff" d="M 292.105469 335.46875 C 290.710938 341.214844 287.933594 346.417969 284.144531 350.707031 L 300.066406 350.707031 C 296.277344 346.417969 293.5 341.214844 292.105469 335.46875 Z M 292.105469 318.476562 C 290.710938 312.734375 287.933594 307.53125 284.144531 303.238281 L 300.066406 303.238281 C 296.277344 307.53125 293.5 312.734375 292.105469 318.476562 Z M 0 326.972656 C 0 353.386719 21.609375 375 48.027344 375 L 326.972656 375 C 353.390625 375 375 353.386719 375 326.972656 C 375 300.558594 353.386719 278.949219 326.972656 278.949219 L 48.027344 278.945312 C 21.609375 278.945312 0 300.558594 0 326.972656 Z M 12.144531 326.972656 C 12.144531 307.160156 28.210938 291.09375 48.027344 291.09375 C 141.007812 291.09375 233.992188 291.09375 326.972656 291.09375 C 346.789062 291.09375 362.855469 307.160156 362.855469 326.972656 C 362.855469 346.789062 346.789062 362.855469 326.972656 362.855469 C 233.992188 362.855469 141.007812 362.855469 48.027344 362.855469 C 28.210938 362.855469 12.144531 346.789062 12.144531 326.972656 Z M 233.503906 326.972656 C 233.503906 340.082031 244.128906 350.707031 257.238281 350.707031 C 270.347656 350.707031 280.972656 340.082031 280.972656 326.972656 C 280.972656 313.863281 270.347656 303.238281 257.238281 303.238281 C 244.128906 303.238281 233.503906 313.863281 233.503906 326.972656 Z M 245.648438 326.972656 C 245.648438 320.566406 250.832031 315.382812 257.238281 315.382812 C 263.644531 315.382812 268.828125 320.566406 268.828125 326.972656 C 268.828125 333.378906 263.644531 338.5625 257.238281 338.5625 C 250.832031 338.5625 245.648438 333.378906 245.648438 326.972656 Z M 303.238281 326.972656 C 303.238281 340.082031 313.863281 350.707031 326.972656 350.707031 C 340.082031 350.707031 350.707031 340.082031 350.707031 326.972656 C 350.707031 313.863281 340.082031 303.238281 326.972656 303.238281 C 313.863281 303.238281 303.238281 313.863281 303.238281 326.972656 Z M 315.382812 326.972656 C 315.382812 320.566406 320.566406 315.382812 326.972656 315.382812 C 333.378906 315.382812 338.5625 320.566406 338.5625 326.972656 C 338.5625 333.378906 333.378906 338.5625 326.972656 338.5625 C 320.566406 338.5625 315.382812 333.378906 315.382812 326.972656 Z M 152.632812 318.476562 C 151.238281 312.734375 148.457031 307.53125 144.671875 303.238281 L 160.59375 303.238281 C 156.804688 307.53125 154.027344 312.734375 152.632812 318.476562 Z M 160.59375 350.707031 L 144.671875 350.707031 C 148.460938 346.417969 151.238281 341.214844 152.632812 335.46875 C 154.027344 341.214844 156.804688 346.417969 160.59375 350.707031 Z M 163.765625 326.972656 C 163.765625 340.082031 174.390625 350.707031 187.5 350.707031 C 200.609375 350.707031 211.234375 340.082031 211.234375 326.972656 C 211.234375 313.863281 200.609375 303.238281 187.5 303.238281 C 174.390625 303.238281 163.765625 313.863281 163.765625 326.972656 Z M 175.910156 326.972656 C 175.910156 320.566406 181.09375 315.382812 187.5 315.382812 C 193.90625 315.382812 199.089844 320.566406 199.089844 326.972656 C 199.089844 333.378906 193.90625 338.5625 187.5 338.5625 C 181.09375 338.5625 175.910156 333.378906 175.910156 326.972656 Z M 230.328125 350.707031 L 214.40625 350.707031 C 218.195312 346.417969 220.972656 341.214844 222.367188 335.46875 C 223.761719 341.214844 226.539062 346.417969 230.328125 350.707031 Z M 222.367188 318.476562 C 220.972656 312.734375 218.195312 307.53125 214.40625 303.238281 L 230.328125 303.238281 C 226.539062 307.53125 223.761719 312.734375 222.367188 318.476562 Z M 94.027344 326.972656 C 94.027344 333.527344 96.683594 339.460938 100.980469 343.757812 C 105.273438 348.050781 111.207031 350.707031 117.761719 350.707031 C 124.316406 350.707031 130.25 348.050781 134.546875 343.757812 C 138.84375 339.460938 141.496094 333.527344 141.496094 326.972656 C 141.496094 313.863281 130.871094 303.238281 117.761719 303.238281 C 104.652344 303.238281 94.027344 313.863281 94.027344 326.972656 Z M 106.171875 326.972656 C 106.171875 320.566406 111.355469 315.382812 117.761719 315.382812 C 124.167969 315.382812 129.351562 320.566406 129.351562 326.972656 C 129.351562 333.378906 124.167969 338.5625 117.761719 338.5625 C 111.355469 338.5625 106.171875 333.378906 106.171875 326.972656 Z M 82.894531 318.476562 C 81.5 312.734375 78.722656 307.53125 74.933594 303.238281 L 90.855469 303.238281 C 87.066406 307.53125 84.289062 312.734375 82.894531 318.476562 Z M 162.183594 165.832031 L 162.183594 190.835938 C 162.183594 193.21875 159.425781 194.523438 157.585938 193.015625 L 145.089844 182.773438 C 144.042969 181.914062 142.570312 181.914062 141.519531 182.773438 L 129.027344 193.015625 C 127.1875 194.523438 124.425781 193.21875 124.425781 190.835938 L 124.425781 165.832031 L 91.296875 165.832031 C 87.789062 165.832031 84.921875 168.699219 84.921875 172.203125 L 84.921875 260.429688 C 84.921875 263.933594 87.789062 266.800781 91.296875 266.800781 L 195.316406 266.800781 C 198.820312 266.800781 201.6875 263.933594 201.6875 260.429688 L 201.6875 172.203125 C 201.6875 168.699219 198.820312 165.832031 195.316406 165.832031 Z M 179.535156 231.820312 C 181.207031 231.820312 182.574219 233.1875 182.574219 234.855469 L 182.574219 244.648438 C 182.574219 246.320312 181.207031 247.683594 179.535156 247.683594 L 157.570312 247.683594 C 155.898438 247.683594 154.53125 246.320312 154.53125 244.648438 L 154.53125 234.855469 C 154.53125 233.1875 155.898438 231.820312 157.570312 231.820312 Z M 125.570312 99.722656 C 119.066406 80.179688 101.382812 65.738281 80.109375 63.984375 L 113.992188 31.453125 C 116.652344 48.492188 130.71875 61.757812 148.132812 63.195312 Z M 176.863281 25.589844 C 176.863281 11.457031 165.40625 0 151.273438 0 C 137.140625 0 125.683594 11.457031 125.683594 25.589844 C 125.683594 39.722656 137.140625 51.179688 151.273438 51.179688 C 165.40625 51.179688 176.863281 39.722656 176.863281 25.589844 Z M 160.554688 25.589844 C 160.554688 30.714844 156.398438 34.871094 151.273438 34.871094 C 146.148438 34.871094 141.996094 30.714844 141.996094 25.589844 C 141.996094 20.464844 146.148438 16.3125 151.273438 16.3125 C 156.398438 16.3125 160.554688 20.464844 160.554688 25.589844 Z M 341.230469 260.429688 L 341.230469 172.203125 C 341.230469 168.699219 338.363281 165.832031 334.855469 165.832031 L 301.726562 165.832031 L 301.726562 190.835938 C 301.726562 193.21875 298.964844 194.523438 297.125 193.015625 L 284.632812 182.773438 C 283.582031 181.914062 282.109375 181.914062 281.058594 182.773438 L 268.566406 193.015625 C 266.726562 194.523438 263.964844 193.21875 263.964844 190.835938 L 263.964844 165.832031 L 230.835938 165.832031 C 227.328125 165.832031 224.460938 168.699219 224.460938 172.203125 L 224.460938 260.429688 C 224.460938 263.933594 227.328125 266.800781 230.835938 266.800781 L 334.859375 266.800781 C 338.363281 266.800781 341.230469 263.933594 341.230469 260.429688 Z M 322.113281 244.648438 C 322.113281 246.320312 320.746094 247.683594 319.074219 247.683594 L 297.109375 247.683594 C 295.4375 247.683594 294.070312 246.320312 294.070312 244.648438 L 294.070312 234.855469 C 294.070312 233.183594 295.4375 231.820312 297.109375 231.820312 L 319.074219 231.820312 C 320.746094 231.820312 322.113281 233.183594 322.113281 234.855469 Z M 24.292969 326.972656 C 24.292969 340.082031 34.917969 350.707031 48.027344 350.707031 C 54.34375 350.707031 60.34375 348.222656 64.808594 343.757812 C 69.105469 339.460938 71.761719 333.527344 71.761719 326.972656 C 71.761719 313.863281 61.136719 303.238281 48.027344 303.238281 C 34.914062 303.238281 24.292969 313.863281 24.292969 326.972656 Z M 36.4375 326.972656 C 36.4375 320.503906 41.75 315.382812 48.027344 315.382812 C 54.433594 315.382812 59.617188 320.566406 59.617188 326.972656 C 59.617188 333.378906 54.433594 338.5625 48.027344 338.5625 C 41.621094 338.5625 36.4375 333.378906 36.4375 326.972656 Z M 90.855469 350.707031 L 74.933594 350.707031 C 78.722656 346.417969 81.5 341.214844 82.894531 335.46875 C 84.289062 341.214844 87.066406 346.417969 90.855469 350.707031 Z M 75.742188 75.949219 C 53.453125 75.949219 35.386719 94.015625 35.386719 116.304688 C 35.386719 138.59375 53.453125 156.660156 75.742188 156.660156 C 98.03125 156.660156 116.101562 138.59375 116.101562 116.304688 C 116.101562 94.015625 98.03125 75.949219 75.742188 75.949219 Z M 92.835938 116.304688 C 92.835938 125.746094 85.183594 133.398438 75.742188 133.398438 C 66.300781 133.398438 58.648438 125.746094 58.648438 116.304688 C 58.648438 106.863281 66.304688 99.210938 75.742188 99.210938 C 85.183594 99.210938 92.835938 106.863281 92.835938 116.304688 Z M 287.675781 147.621094 L 287.675781 115.804688 L 267.664062 104.25 L 247.648438 115.804688 L 247.648438 147.621094 C 236.691406 140.886719 229.382812 128.789062 229.382812 114.984375 C 229.382812 99.847656 238.167969 86.769531 250.914062 80.554688 L 250.914062 66.148438 C 250.914062 62.734375 253.707031 59.9375 257.121094 59.9375 L 278.207031 59.9375 C 281.621094 59.9375 284.417969 62.730469 284.417969 66.148438 L 284.417969 80.554688 C 297.164062 86.769531 305.945312 99.847656 305.945312 114.984375 C 305.945312 128.789062 298.636719 140.886719 287.675781 147.621094 Z M 238.78125 65.488281 L 178.515625 51.699219 C 185.015625 44.921875 189.011719 35.722656 189.011719 25.589844 C 189.011719 23.550781 188.847656 21.546875 188.535156 19.59375 L 249.777344 49.328125 C 243.492188 52.085938 239.035156 58.261719 238.78125 65.488281 Z M 73.914062 266.800781 L 48.027344 266.800781 C 43.046875 266.800781 38.207031 267.417969 33.574219 268.570312 L 43.207031 157.507812 C 51.507812 164.074219 61.839844 168.183594 73.105469 168.742188 C 72.890625 169.863281 72.777344 171.019531 72.777344 172.203125 L 72.777344 260.429688 C 72.777344 262.664062 73.179688 264.8125 73.914062 266.800781 Z M 73.914062 266.800781 " fill-opacity="1" fill-rule="nonzero"/></g></g></svg>