<svg xmlns="http://www.w3.org/2000/svg" xmlns:xlink="http://www.w3.org/1999/xlink" width="500" zoomAndPan="magnify" viewBox="0 0 375 374.999991" height="500" preserveAspectRatio="xMidYMid meet" version="1.0"><defs><clipPath id="f2e4116f4e"><path d="M 11.015625 0 L 364 0 L 364 78 L 11.015625 78 Z M 11.015625 0 " clip-rule="nonzero"/></clipPath><clipPath id="a92c800def"><path d="M 11.015625 65 L 60 65 L 60 125 L 11.015625 125 Z M 11.015625 65 " clip-rule="nonzero"/></clipPath><clipPath id="8e57a66063"><path d="M 11.015625 332 L 364 332 L 364 375 L 11.015625 375 Z M 11.015625 332 " clip-rule="nonzero"/></clipPath></defs><g clip-path="url(#f2e4116f4e)"><path fill="#933eff" d="M 357.667969 77.679688 L 17.332031 77.679688 C 17.078125 77.679688 16.824219 77.664062 16.574219 77.632812 C 16.324219 77.601562 16.074219 77.558594 15.828125 77.496094 C 15.582031 77.4375 15.339844 77.363281 15.101562 77.273438 C 14.867188 77.183594 14.636719 77.078125 14.410156 76.960938 C 14.1875 76.84375 13.96875 76.714844 13.761719 76.570312 C 13.550781 76.425781 13.351562 76.273438 13.164062 76.105469 C 12.972656 75.9375 12.792969 75.757812 12.625 75.570312 C 12.457031 75.378906 12.300781 75.179688 12.15625 74.972656 C 12.011719 74.765625 11.878906 74.550781 11.761719 74.324219 C 11.640625 74.101562 11.535156 73.871094 11.445312 73.632812 C 11.355469 73.398438 11.277344 73.15625 11.21875 72.910156 C 11.15625 72.664062 11.109375 72.417969 11.078125 72.164062 C 11.046875 71.914062 11.027344 71.660156 11.027344 71.410156 C 11.027344 71.15625 11.039062 70.902344 11.070312 70.652344 C 11.097656 70.398438 11.144531 70.148438 11.203125 69.902344 C 11.261719 69.65625 11.335938 69.414062 11.421875 69.179688 L 35.632812 4.105469 C 35.859375 3.5 36.167969 2.941406 36.5625 2.433594 C 36.960938 1.925781 37.421875 1.488281 37.953125 1.121094 C 38.484375 0.753906 39.058594 0.472656 39.671875 0.28125 C 40.289062 0.0898438 40.921875 -0.00390625 41.566406 0 L 333.433594 0 C 334.078125 0 334.707031 0.0976562 335.320312 0.289062 C 335.933594 0.480469 336.503906 0.757812 337.03125 1.125 C 337.558594 1.492188 338.023438 1.929688 338.414062 2.4375 C 338.808594 2.945312 339.121094 3.5 339.34375 4.105469 L 363.554688 69.179688 C 363.640625 69.414062 363.714844 69.65625 363.773438 69.902344 C 363.832031 70.148438 363.878906 70.398438 363.90625 70.648438 C 363.9375 70.898438 363.949219 71.152344 363.949219 71.402344 C 363.949219 71.65625 363.929688 71.910156 363.898438 72.160156 C 363.867188 72.410156 363.820312 72.660156 363.761719 72.902344 C 363.699219 73.148438 363.625 73.390625 363.535156 73.625 C 363.441406 73.863281 363.339844 74.09375 363.222656 74.316406 C 363.101562 74.539062 362.972656 74.753906 362.828125 74.964844 C 362.683594 75.171875 362.527344 75.371094 362.359375 75.558594 C 362.191406 75.75 362.015625 75.925781 361.824219 76.09375 C 361.636719 76.261719 361.4375 76.417969 361.230469 76.5625 C 361.019531 76.707031 360.804688 76.835938 360.582031 76.953125 C 360.355469 77.070312 360.128906 77.175781 359.890625 77.265625 C 359.65625 77.355469 359.414062 77.429688 359.167969 77.492188 C 358.921875 77.554688 358.675781 77.597656 358.421875 77.628906 C 358.171875 77.660156 357.921875 77.675781 357.667969 77.679688 Z M 26.445312 65.074219 L 348.578125 65.074219 L 329.054688 12.605469 L 45.945312 12.605469 Z M 26.445312 65.074219 " fill-opacity="1" fill-rule="nonzero"/></g><g clip-path="url(#a92c800def)"><path fill="#933eff" d="M 35.269531 124.199219 C 34.476562 124.199219 33.683594 124.160156 32.894531 124.082031 C 32.105469 124.003906 31.320312 123.886719 30.542969 123.730469 C 29.765625 123.578125 28.996094 123.382812 28.238281 123.15625 C 27.476562 122.925781 26.730469 122.65625 26 122.351562 C 25.265625 122.050781 24.550781 121.710938 23.847656 121.335938 C 23.148438 120.960938 22.46875 120.554688 21.808594 120.113281 C 21.148438 119.671875 20.511719 119.203125 19.898438 118.699219 C 19.285156 118.195312 18.699219 117.664062 18.136719 117.101562 C 17.574219 116.542969 17.042969 115.953125 16.539062 115.339844 C 16.035156 114.726562 15.5625 114.089844 15.121094 113.433594 C 14.679688 112.773438 14.273438 112.09375 13.898438 111.394531 C 13.523438 110.695312 13.183594 109.976562 12.882812 109.246094 C 12.578125 108.511719 12.308594 107.765625 12.078125 107.007812 C 11.847656 106.246094 11.65625 105.476562 11.5 104.699219 C 11.34375 103.921875 11.226562 103.136719 11.148438 102.347656 C 11.070312 101.558594 11.03125 100.765625 11.03125 99.972656 L 11.03125 71.375 C 11.03125 70.960938 11.070312 70.550781 11.152344 70.144531 C 11.230469 69.742188 11.351562 69.347656 11.507812 68.964844 C 11.667969 68.582031 11.863281 68.21875 12.089844 67.875 C 12.320312 67.53125 12.582031 67.210938 12.875 66.917969 C 13.167969 66.625 13.488281 66.367188 13.832031 66.136719 C 14.175781 65.90625 14.539062 65.710938 14.921875 65.554688 C 15.300781 65.394531 15.695312 65.273438 16.101562 65.195312 C 16.507812 65.113281 16.917969 65.074219 17.332031 65.074219 L 53.183594 65.074219 C 53.597656 65.074219 54.007812 65.113281 54.414062 65.195312 C 54.820312 65.273438 55.214844 65.394531 55.597656 65.554688 C 55.980469 65.710938 56.34375 65.90625 56.6875 66.136719 C 57.03125 66.367188 57.347656 66.625 57.640625 66.917969 C 57.933594 67.210938 58.195312 67.53125 58.425781 67.875 C 58.65625 68.21875 58.851562 68.582031 59.007812 68.964844 C 59.167969 69.347656 59.285156 69.742188 59.367188 70.148438 C 59.449219 70.550781 59.488281 70.960938 59.488281 71.375 L 59.488281 99.972656 C 59.488281 100.765625 59.449219 101.558594 59.371094 102.347656 C 59.289062 103.136719 59.175781 103.917969 59.019531 104.695312 C 58.863281 105.476562 58.671875 106.242188 58.441406 107 C 58.210938 107.761719 57.941406 108.507812 57.636719 109.238281 C 57.335938 109.972656 56.996094 110.6875 56.621094 111.386719 C 56.246094 112.085938 55.839844 112.765625 55.398438 113.425781 C 54.957031 114.082031 54.488281 114.71875 53.984375 115.332031 C 53.480469 115.945312 52.949219 116.53125 52.386719 117.09375 C 51.828125 117.65625 51.242188 118.1875 50.628906 118.691406 C 50.015625 119.195312 49.378906 119.664062 48.71875 120.105469 C 48.0625 120.546875 47.382812 120.953125 46.683594 121.328125 C 45.984375 121.703125 45.265625 122.042969 44.535156 122.347656 C 43.800781 122.652344 43.058594 122.917969 42.296875 123.148438 C 41.539062 123.378906 40.773438 123.574219 39.992188 123.726562 C 39.214844 123.882812 38.433594 124 37.644531 124.078125 C 36.855469 124.15625 36.0625 124.199219 35.269531 124.199219 Z M 23.632812 77.679688 L 23.632812 99.972656 C 23.632812 100.738281 23.707031 101.492188 23.855469 102.242188 C 24.003906 102.988281 24.222656 103.714844 24.515625 104.421875 C 24.808594 105.125 25.164062 105.792969 25.589844 106.429688 C 26.011719 107.0625 26.492188 107.652344 27.03125 108.191406 C 27.570312 108.730469 28.160156 109.210938 28.792969 109.636719 C 29.425781 110.058594 30.097656 110.417969 30.800781 110.710938 C 31.503906 111 32.230469 111.222656 32.980469 111.371094 C 33.730469 111.519531 34.484375 111.59375 35.246094 111.59375 C 36.007812 111.59375 36.765625 111.519531 37.511719 111.371094 C 38.261719 111.222656 38.988281 111 39.691406 110.710938 C 40.398438 110.417969 41.066406 110.058594 41.699219 109.636719 C 42.335938 109.210938 42.921875 108.730469 43.460938 108.191406 C 44 107.652344 44.480469 107.0625 44.90625 106.429688 C 45.328125 105.792969 45.6875 105.125 45.976562 104.421875 C 46.269531 103.714844 46.488281 102.988281 46.636719 102.242188 C 46.785156 101.492188 46.859375 100.738281 46.859375 99.972656 L 46.859375 77.679688 Z M 23.632812 77.679688 " fill-opacity="1" fill-rule="nonzero"/></g><path fill="#933eff" d="M 78.78125 124.199219 C 77.988281 124.199219 77.195312 124.160156 76.40625 124.082031 C 75.617188 124.003906 74.832031 123.886719 74.054688 123.730469 C 73.277344 123.574219 72.507812 123.382812 71.75 123.152344 C 70.992188 122.921875 70.246094 122.65625 69.511719 122.351562 C 68.777344 122.046875 68.0625 121.707031 67.363281 121.335938 C 66.664062 120.960938 65.984375 120.550781 65.324219 120.113281 C 64.664062 119.671875 64.027344 119.199219 63.414062 118.695312 C 62.800781 118.191406 62.214844 117.660156 61.652344 117.097656 C 61.09375 116.539062 60.558594 115.953125 60.054688 115.339844 C 59.554688 114.726562 59.082031 114.089844 58.640625 113.429688 C 58.199219 112.769531 57.792969 112.089844 57.417969 111.390625 C 57.042969 110.691406 56.703125 109.976562 56.398438 109.242188 C 56.09375 108.507812 55.828125 107.765625 55.597656 107.003906 C 55.367188 106.246094 55.171875 105.476562 55.019531 104.699219 C 54.863281 103.921875 54.746094 103.136719 54.667969 102.347656 C 54.589844 101.558594 54.550781 100.765625 54.546875 99.972656 L 54.546875 71.375 C 54.546875 70.960938 54.589844 70.550781 54.667969 70.144531 C 54.75 69.742188 54.871094 69.347656 55.027344 68.964844 C 55.1875 68.582031 55.378906 68.21875 55.609375 67.875 C 55.839844 67.53125 56.101562 67.210938 56.394531 66.917969 C 56.6875 66.625 57.003906 66.367188 57.347656 66.136719 C 57.695312 65.90625 58.054688 65.710938 58.4375 65.554688 C 58.820312 65.394531 59.214844 65.273438 59.621094 65.195312 C 60.027344 65.113281 60.4375 65.074219 60.851562 65.074219 L 96.679688 65.074219 C 97.09375 65.074219 97.503906 65.113281 97.910156 65.195312 C 98.316406 65.273438 98.710938 65.394531 99.09375 65.554688 C 99.476562 65.710938 99.839844 65.90625 100.183594 66.136719 C 100.527344 66.367188 100.84375 66.625 101.136719 66.917969 C 101.429688 67.210938 101.691406 67.53125 101.921875 67.875 C 102.152344 68.21875 102.34375 68.582031 102.503906 68.964844 C 102.660156 69.347656 102.78125 69.742188 102.863281 70.148438 C 102.941406 70.550781 102.984375 70.960938 102.984375 71.375 L 102.984375 99.972656 C 102.984375 100.765625 102.941406 101.558594 102.863281 102.347656 C 102.785156 103.136719 102.667969 103.917969 102.515625 104.695312 C 102.359375 105.472656 102.167969 106.242188 101.9375 107 C 101.707031 107.757812 101.4375 108.503906 101.136719 109.234375 C 100.832031 109.96875 100.492188 110.683594 100.121094 111.382812 C 99.746094 112.082031 99.339844 112.761719 98.898438 113.417969 C 98.457031 114.078125 97.988281 114.714844 97.484375 115.328125 C 96.980469 115.941406 96.449219 116.527344 95.890625 117.089844 C 95.328125 117.648438 94.742188 118.179688 94.128906 118.683594 C 93.519531 119.1875 92.882812 119.660156 92.222656 120.101562 C 91.566406 120.542969 90.886719 120.949219 90.1875 121.324219 C 89.488281 121.699219 88.773438 122.039062 88.042969 122.34375 C 87.308594 122.644531 86.5625 122.914062 85.804688 123.144531 C 85.046875 123.375 84.28125 123.570312 83.503906 123.726562 C 82.726562 123.882812 81.941406 124 81.152344 124.078125 C 80.363281 124.15625 79.574219 124.199219 78.78125 124.199219 Z M 67.152344 77.679688 L 67.152344 99.972656 C 67.152344 100.734375 67.226562 101.492188 67.375 102.238281 C 67.523438 102.988281 67.746094 103.714844 68.039062 104.417969 C 68.328125 105.121094 68.6875 105.792969 69.109375 106.425781 C 69.535156 107.058594 70.015625 107.644531 70.554688 108.183594 C 71.09375 108.722656 71.679688 109.207031 72.3125 109.628906 C 72.949219 110.050781 73.617188 110.410156 74.320312 110.703125 C 75.027344 110.992188 75.753906 111.214844 76.5 111.363281 C 77.25 111.511719 78.003906 111.585938 78.765625 111.585938 C 79.527344 111.585938 80.285156 111.511719 81.03125 111.363281 C 81.777344 111.214844 82.503906 110.992188 83.210938 110.703125 C 83.914062 110.410156 84.582031 110.050781 85.21875 109.628906 C 85.851562 109.207031 86.4375 108.722656 86.976562 108.183594 C 87.515625 107.644531 87.996094 107.058594 88.421875 106.425781 C 88.84375 105.792969 89.203125 105.121094 89.496094 104.417969 C 89.785156 103.714844 90.007812 102.988281 90.15625 102.238281 C 90.304688 101.492188 90.378906 100.734375 90.378906 99.972656 L 90.378906 77.679688 Z M 67.152344 77.679688 " fill-opacity="1" fill-rule="nonzero"/><path fill="#933eff" d="M 122.261719 124.199219 C 121.46875 124.199219 120.675781 124.15625 119.886719 124.078125 C 119.097656 124 118.316406 123.882812 117.539062 123.726562 C 116.761719 123.574219 115.992188 123.378906 115.234375 123.148438 C 114.472656 122.917969 113.730469 122.652344 112.996094 122.347656 C 112.265625 122.042969 111.546875 121.703125 110.847656 121.328125 C 110.148438 120.953125 109.472656 120.546875 108.8125 120.105469 C 108.152344 119.664062 107.515625 119.195312 106.902344 118.691406 C 106.289062 118.1875 105.703125 117.65625 105.144531 117.09375 C 104.582031 116.53125 104.050781 115.945312 103.546875 115.332031 C 103.042969 114.71875 102.574219 114.082031 102.132812 113.425781 C 101.691406 112.765625 101.285156 112.085938 100.910156 111.386719 C 100.535156 110.6875 100.195312 109.972656 99.894531 109.238281 C 99.589844 108.507812 99.320312 107.761719 99.089844 107 C 98.859375 106.242188 98.667969 105.476562 98.511719 104.695312 C 98.359375 103.917969 98.242188 103.136719 98.164062 102.347656 C 98.082031 101.558594 98.042969 100.765625 98.042969 99.972656 L 98.042969 71.375 C 98.042969 70.960938 98.082031 70.550781 98.164062 70.144531 C 98.246094 69.742188 98.363281 69.347656 98.523438 68.964844 C 98.683594 68.582031 98.875 68.21875 99.105469 67.875 C 99.335938 67.53125 99.597656 67.210938 99.890625 66.917969 C 100.183594 66.625 100.5 66.367188 100.84375 66.136719 C 101.1875 65.90625 101.550781 65.710938 101.933594 65.554688 C 102.316406 65.394531 102.710938 65.273438 103.117188 65.195312 C 103.523438 65.113281 103.933594 65.074219 104.347656 65.074219 L 140.175781 65.074219 C 140.589844 65.074219 141 65.113281 141.40625 65.195312 C 141.8125 65.273438 142.207031 65.394531 142.585938 65.554688 C 142.96875 65.710938 143.332031 65.90625 143.675781 66.136719 C 144.023438 66.367188 144.339844 66.625 144.632812 66.917969 C 144.925781 67.210938 145.1875 67.53125 145.417969 67.875 C 145.644531 68.21875 145.839844 68.582031 146 68.964844 C 146.15625 69.347656 146.277344 69.742188 146.355469 70.148438 C 146.4375 70.550781 146.476562 70.960938 146.476562 71.375 L 146.476562 99.972656 C 146.476562 100.765625 146.4375 101.558594 146.359375 102.347656 C 146.28125 103.136719 146.164062 103.917969 146.007812 104.695312 C 145.855469 105.476562 145.660156 106.242188 145.429688 107 C 145.199219 107.761719 144.933594 108.507812 144.628906 109.238281 C 144.324219 109.972656 143.984375 110.6875 143.613281 111.386719 C 143.238281 112.085938 142.832031 112.765625 142.390625 113.425781 C 141.949219 114.082031 141.476562 114.71875 140.972656 115.332031 C 140.472656 115.945312 139.941406 116.53125 139.378906 117.09375 C 138.816406 117.65625 138.230469 118.1875 137.617188 118.691406 C 137.003906 119.195312 136.371094 119.664062 135.710938 120.105469 C 135.050781 120.546875 134.371094 120.953125 133.671875 121.328125 C 132.972656 121.703125 132.257812 122.042969 131.527344 122.347656 C 130.792969 122.652344 130.046875 122.917969 129.289062 123.148438 C 128.53125 123.378906 127.761719 123.574219 126.984375 123.726562 C 126.207031 123.882812 125.421875 124 124.632812 124.078125 C 123.84375 124.15625 123.054688 124.199219 122.261719 124.199219 Z M 110.648438 77.679688 L 110.648438 99.972656 C 110.648438 100.738281 110.722656 101.492188 110.871094 102.242188 C 111.019531 102.988281 111.238281 103.714844 111.53125 104.421875 C 111.820312 105.125 112.179688 105.796875 112.601562 106.429688 C 113.023438 107.066406 113.507812 107.652344 114.046875 108.191406 C 114.585938 108.730469 115.171875 109.214844 115.804688 109.636719 C 116.441406 110.0625 117.109375 110.421875 117.816406 110.710938 C 118.519531 111.003906 119.246094 111.226562 119.996094 111.375 C 120.742188 111.523438 121.5 111.597656 122.261719 111.597656 C 123.023438 111.597656 123.78125 111.523438 124.527344 111.375 C 125.277344 111.226562 126.003906 111.003906 126.707031 110.710938 C 127.414062 110.421875 128.082031 110.0625 128.714844 109.636719 C 129.351562 109.214844 129.9375 108.730469 130.476562 108.191406 C 131.015625 107.652344 131.496094 107.066406 131.921875 106.429688 C 132.34375 105.796875 132.703125 105.125 132.992188 104.421875 C 133.285156 103.714844 133.503906 102.988281 133.652344 102.242188 C 133.800781 101.492188 133.875 100.738281 133.875 99.972656 L 133.875 77.679688 Z M 110.648438 77.679688 " fill-opacity="1" fill-rule="nonzero"/><path fill="#933eff" d="M 165.757812 124.199219 C 164.964844 124.199219 164.171875 124.15625 163.382812 124.078125 C 162.59375 124 161.808594 123.882812 161.03125 123.726562 C 160.253906 123.574219 159.488281 123.378906 158.726562 123.148438 C 157.96875 122.917969 157.222656 122.652344 156.492188 122.347656 C 155.757812 122.042969 155.042969 121.703125 154.34375 121.328125 C 153.644531 120.953125 152.964844 120.546875 152.308594 120.105469 C 151.648438 119.664062 151.011719 119.195312 150.398438 118.691406 C 149.785156 118.1875 149.199219 117.65625 148.636719 117.09375 C 148.078125 116.53125 147.546875 115.945312 147.042969 115.332031 C 146.539062 114.71875 146.066406 114.082031 145.628906 113.425781 C 145.1875 112.765625 144.777344 112.085938 144.40625 111.386719 C 144.03125 110.6875 143.691406 109.972656 143.386719 109.238281 C 143.085938 108.507812 142.816406 107.761719 142.585938 107 C 142.355469 106.242188 142.164062 105.476562 142.007812 104.695312 C 141.851562 103.917969 141.734375 103.136719 141.65625 102.347656 C 141.578125 101.558594 141.539062 100.765625 141.539062 99.972656 L 141.539062 71.375 C 141.539062 70.960938 141.578125 70.550781 141.660156 70.144531 C 141.742188 69.742188 141.859375 69.347656 142.019531 68.964844 C 142.175781 68.582031 142.371094 68.21875 142.601562 67.875 C 142.832031 67.53125 143.09375 67.210938 143.386719 66.917969 C 143.675781 66.625 143.996094 66.367188 144.339844 66.136719 C 144.683594 65.90625 145.046875 65.710938 145.429688 65.554688 C 145.8125 65.394531 146.207031 65.273438 146.613281 65.195312 C 147.019531 65.113281 147.425781 65.074219 147.839844 65.074219 L 183.671875 65.074219 C 184.085938 65.074219 184.496094 65.113281 184.902344 65.195312 C 185.304688 65.273438 185.699219 65.394531 186.082031 65.554688 C 186.464844 65.710938 186.828125 65.90625 187.171875 66.136719 C 187.515625 66.367188 187.835938 66.625 188.128906 66.917969 C 188.421875 67.210938 188.683594 67.53125 188.910156 67.875 C 189.140625 68.21875 189.335938 68.582031 189.492188 68.964844 C 189.652344 69.347656 189.773438 69.742188 189.851562 70.148438 C 189.933594 70.550781 189.972656 70.960938 189.972656 71.375 L 189.972656 99.972656 C 189.972656 100.765625 189.933594 101.558594 189.855469 102.347656 C 189.777344 103.136719 189.660156 103.917969 189.503906 104.695312 C 189.347656 105.476562 189.15625 106.242188 188.925781 107 C 188.695312 107.761719 188.429688 108.507812 188.125 109.238281 C 187.820312 109.972656 187.480469 110.6875 187.105469 111.386719 C 186.734375 112.085938 186.324219 112.765625 185.886719 113.425781 C 185.445312 114.082031 184.972656 114.71875 184.46875 115.332031 C 183.964844 115.945312 183.433594 116.53125 182.875 117.09375 C 182.3125 117.65625 181.726562 118.1875 181.113281 118.691406 C 180.5 119.195312 179.863281 119.664062 179.207031 120.105469 C 178.546875 120.546875 177.867188 120.953125 177.167969 121.328125 C 176.46875 121.703125 175.753906 122.042969 175.019531 122.347656 C 174.289062 122.652344 173.542969 122.917969 172.785156 123.148438 C 172.027344 123.378906 171.257812 123.574219 170.480469 123.726562 C 169.703125 123.882812 168.917969 124 168.128906 124.078125 C 167.339844 124.15625 166.550781 124.199219 165.757812 124.199219 Z M 154.144531 77.679688 L 154.144531 99.972656 C 154.144531 100.734375 154.21875 101.492188 154.367188 102.238281 C 154.515625 102.988281 154.734375 103.714844 155.027344 104.417969 C 155.320312 105.121094 155.675781 105.792969 156.101562 106.425781 C 156.523438 107.058594 157.007812 107.644531 157.546875 108.183594 C 158.085938 108.722656 158.671875 109.207031 159.304688 109.628906 C 159.9375 110.050781 160.609375 110.410156 161.3125 110.703125 C 162.015625 110.992188 162.742188 111.214844 163.492188 111.363281 C 164.238281 111.511719 164.992188 111.585938 165.757812 111.585938 C 166.519531 111.585938 167.273438 111.511719 168.023438 111.363281 C 168.769531 111.214844 169.496094 110.992188 170.199219 110.703125 C 170.90625 110.410156 171.574219 110.050781 172.207031 109.628906 C 172.839844 109.207031 173.429688 108.722656 173.96875 108.183594 C 174.507812 107.644531 174.988281 107.058594 175.410156 106.425781 C 175.835938 105.792969 176.191406 105.121094 176.484375 104.417969 C 176.777344 103.714844 176.996094 102.988281 177.144531 102.238281 C 177.292969 101.492188 177.367188 100.734375 177.367188 99.972656 L 177.367188 77.679688 Z M 154.144531 77.679688 " fill-opacity="1" fill-rule="nonzero"/><path fill="#933eff" d="M 209.242188 124.199219 C 208.449219 124.199219 207.660156 124.15625 206.871094 124.078125 C 206.082031 124 205.296875 123.882812 204.519531 123.726562 C 203.742188 123.574219 202.972656 123.378906 202.214844 123.148438 C 201.457031 122.917969 200.710938 122.652344 199.980469 122.347656 C 199.246094 122.042969 198.53125 121.703125 197.832031 121.328125 C 197.132812 120.953125 196.453125 120.546875 195.792969 120.105469 C 195.136719 119.664062 194.5 119.195312 193.886719 118.691406 C 193.273438 118.1875 192.6875 117.65625 192.125 117.09375 C 191.566406 116.53125 191.035156 115.945312 190.53125 115.332031 C 190.027344 114.71875 189.554688 114.082031 189.113281 113.425781 C 188.675781 112.765625 188.265625 112.085938 187.890625 111.386719 C 187.519531 110.6875 187.179688 109.972656 186.875 109.238281 C 186.570312 108.507812 186.304688 107.761719 186.074219 107 C 185.84375 106.242188 185.652344 105.476562 185.496094 104.695312 C 185.339844 103.917969 185.222656 103.136719 185.144531 102.347656 C 185.066406 101.558594 185.027344 100.765625 185.027344 99.972656 L 185.027344 71.375 C 185.027344 70.960938 185.066406 70.550781 185.148438 70.144531 C 185.226562 69.742188 185.347656 69.347656 185.507812 68.964844 C 185.664062 68.582031 185.859375 68.21875 186.089844 67.875 C 186.316406 67.53125 186.578125 67.210938 186.871094 66.917969 C 187.164062 66.625 187.484375 66.367188 187.828125 66.136719 C 188.171875 65.90625 188.535156 65.710938 188.917969 65.554688 C 189.300781 65.394531 189.691406 65.273438 190.097656 65.195312 C 190.503906 65.113281 190.914062 65.074219 191.328125 65.074219 L 227.160156 65.074219 C 227.574219 65.074219 227.980469 65.113281 228.386719 65.195312 C 228.792969 65.273438 229.1875 65.394531 229.570312 65.554688 C 229.953125 65.710938 230.316406 65.90625 230.660156 66.136719 C 231.003906 66.367188 231.324219 66.625 231.613281 66.917969 C 231.90625 67.210938 232.167969 67.53125 232.398438 67.875 C 232.628906 68.21875 232.824219 68.582031 232.980469 68.964844 C 233.140625 69.347656 233.257812 69.742188 233.339844 70.148438 C 233.421875 70.550781 233.460938 70.960938 233.460938 71.375 L 233.460938 99.972656 C 233.460938 100.765625 233.421875 101.558594 233.34375 102.347656 C 233.265625 103.136719 233.148438 103.917969 232.992188 104.695312 C 232.835938 105.476562 232.644531 106.242188 232.414062 107 C 232.183594 107.761719 231.914062 108.507812 231.613281 109.238281 C 231.308594 109.972656 230.96875 110.6875 230.59375 111.386719 C 230.222656 112.085938 229.8125 112.765625 229.371094 113.425781 C 228.933594 114.082031 228.460938 114.71875 227.957031 115.332031 C 227.453125 115.945312 226.921875 116.53125 226.363281 117.09375 C 225.800781 117.65625 225.214844 118.1875 224.601562 118.691406 C 223.988281 119.195312 223.351562 119.664062 222.691406 120.105469 C 222.035156 120.546875 221.355469 120.953125 220.65625 121.328125 C 219.957031 121.703125 219.242188 122.042969 218.507812 122.347656 C 217.777344 122.652344 217.03125 122.917969 216.273438 123.148438 C 215.511719 123.378906 214.746094 123.574219 213.96875 123.726562 C 213.1875 123.882812 212.40625 124 211.617188 124.078125 C 210.828125 124.15625 210.035156 124.199219 209.242188 124.199219 Z M 197.632812 77.679688 L 197.632812 99.972656 C 197.632812 100.734375 197.707031 101.492188 197.855469 102.238281 C 198.003906 102.988281 198.222656 103.714844 198.515625 104.417969 C 198.808594 105.121094 199.164062 105.792969 199.589844 106.425781 C 200.011719 107.058594 200.492188 107.644531 201.03125 108.183594 C 201.570312 108.722656 202.15625 109.207031 202.792969 109.628906 C 203.425781 110.050781 204.09375 110.410156 204.800781 110.703125 C 205.503906 110.992188 206.230469 111.214844 206.976562 111.363281 C 207.726562 111.511719 208.480469 111.585938 209.242188 111.585938 C 210.007812 111.585938 210.761719 111.511719 211.507812 111.363281 C 212.257812 111.214844 212.984375 110.992188 213.6875 110.703125 C 214.390625 110.410156 215.0625 110.050781 215.695312 109.628906 C 216.328125 109.207031 216.914062 108.722656 217.453125 108.183594 C 217.992188 107.644531 218.476562 107.058594 218.898438 106.425781 C 219.324219 105.792969 219.679688 105.121094 219.972656 104.417969 C 220.265625 103.714844 220.484375 102.988281 220.632812 102.238281 C 220.78125 101.492188 220.855469 100.734375 220.855469 99.972656 L 220.855469 77.679688 Z M 197.632812 77.679688 " fill-opacity="1" fill-rule="nonzero"/><path fill="#933eff" d="M 252.738281 124.199219 C 251.945312 124.199219 251.15625 124.15625 250.367188 124.078125 C 249.578125 124 248.792969 123.882812 248.015625 123.726562 C 247.238281 123.574219 246.46875 123.378906 245.710938 123.148438 C 244.953125 122.917969 244.207031 122.652344 243.472656 122.347656 C 242.742188 122.042969 242.027344 121.703125 241.328125 121.328125 C 240.628906 120.953125 239.949219 120.546875 239.289062 120.105469 C 238.628906 119.664062 237.996094 119.195312 237.382812 118.691406 C 236.769531 118.1875 236.183594 117.65625 235.621094 117.09375 C 235.058594 116.53125 234.527344 115.945312 234.027344 115.332031 C 233.523438 114.71875 233.050781 114.082031 232.609375 113.425781 C 232.167969 112.765625 231.761719 112.085938 231.386719 111.386719 C 231.015625 110.6875 230.675781 109.972656 230.371094 109.238281 C 230.066406 108.507812 229.800781 107.761719 229.570312 107 C 229.339844 106.242188 229.144531 105.476562 228.992188 104.695312 C 228.835938 103.917969 228.71875 103.136719 228.640625 102.347656 C 228.5625 101.558594 228.523438 100.765625 228.523438 99.972656 L 228.523438 71.375 C 228.523438 70.960938 228.5625 70.550781 228.644531 70.144531 C 228.722656 69.742188 228.84375 69.347656 229 68.964844 C 229.160156 68.582031 229.355469 68.21875 229.582031 67.875 C 229.8125 67.53125 230.074219 67.210938 230.367188 66.917969 C 230.660156 66.625 230.976562 66.367188 231.324219 66.136719 C 231.667969 65.90625 232.03125 65.710938 232.414062 65.554688 C 232.792969 65.394531 233.1875 65.273438 233.59375 65.195312 C 234 65.113281 234.410156 65.074219 234.824219 65.074219 L 270.652344 65.074219 C 271.066406 65.074219 271.476562 65.113281 271.882812 65.195312 C 272.289062 65.273438 272.683594 65.394531 273.066406 65.554688 C 273.449219 65.710938 273.8125 65.90625 274.15625 66.136719 C 274.5 66.367188 274.816406 66.625 275.109375 66.917969 C 275.402344 67.210938 275.664062 67.53125 275.894531 67.875 C 276.125 68.21875 276.316406 68.582031 276.476562 68.964844 C 276.636719 69.347656 276.753906 69.742188 276.835938 70.148438 C 276.917969 70.550781 276.957031 70.960938 276.957031 71.375 L 276.957031 99.972656 C 276.957031 100.765625 276.917969 101.558594 276.835938 102.347656 C 276.757812 103.136719 276.640625 103.917969 276.488281 104.695312 C 276.332031 105.476562 276.140625 106.242188 275.910156 107 C 275.679688 107.761719 275.410156 108.507812 275.105469 109.238281 C 274.804688 109.972656 274.464844 110.6875 274.089844 111.386719 C 273.714844 112.085938 273.308594 112.765625 272.867188 113.425781 C 272.425781 114.082031 271.957031 114.71875 271.453125 115.332031 C 270.949219 115.945312 270.417969 116.53125 269.855469 117.09375 C 269.296875 117.65625 268.710938 118.1875 268.097656 118.691406 C 267.484375 119.195312 266.847656 119.664062 266.1875 120.105469 C 265.527344 120.546875 264.851562 120.953125 264.152344 121.328125 C 263.453125 121.703125 262.734375 122.042969 262.003906 122.347656 C 261.269531 122.652344 260.527344 122.917969 259.765625 123.148438 C 259.007812 123.378906 258.238281 123.574219 257.460938 123.726562 C 256.683594 123.882812 255.902344 124 255.113281 124.078125 C 254.324219 124.15625 253.53125 124.199219 252.738281 124.199219 Z M 241.125 77.679688 L 241.125 99.972656 C 241.125 100.734375 241.199219 101.492188 241.351562 102.238281 C 241.5 102.988281 241.71875 103.714844 242.011719 104.417969 C 242.300781 105.121094 242.660156 105.792969 243.082031 106.425781 C 243.507812 107.058594 243.988281 107.644531 244.527344 108.183594 C 245.066406 108.722656 245.652344 109.207031 246.289062 109.628906 C 246.921875 110.050781 247.589844 110.410156 248.296875 110.703125 C 249 110.992188 249.726562 111.214844 250.472656 111.363281 C 251.222656 111.511719 251.976562 111.585938 252.738281 111.585938 C 253.5 111.585938 254.257812 111.511719 255.003906 111.363281 C 255.753906 111.214844 256.476562 110.992188 257.183594 110.703125 C 257.886719 110.410156 258.554688 110.050781 259.191406 109.628906 C 259.824219 109.207031 260.410156 108.722656 260.949219 108.183594 C 261.488281 107.644531 261.96875 107.058594 262.394531 106.425781 C 262.816406 105.792969 263.175781 105.121094 263.46875 104.417969 C 263.757812 103.714844 263.980469 102.988281 264.128906 102.238281 C 264.277344 101.492188 264.351562 100.734375 264.351562 99.972656 L 264.351562 77.679688 Z M 241.125 77.679688 " fill-opacity="1" fill-rule="nonzero"/><path fill="#933eff" d="M 296.21875 124.199219 C 295.425781 124.199219 294.632812 124.15625 293.84375 124.078125 C 293.054688 124 292.273438 123.882812 291.496094 123.726562 C 290.71875 123.574219 289.949219 123.378906 289.191406 123.148438 C 288.433594 122.917969 287.6875 122.652344 286.953125 122.347656 C 286.222656 122.042969 285.503906 121.703125 284.804688 121.328125 C 284.105469 120.953125 283.429688 120.546875 282.769531 120.105469 C 282.109375 119.664062 281.472656 119.195312 280.859375 118.691406 C 280.25 118.1875 279.660156 117.65625 279.101562 117.09375 C 278.539062 116.53125 278.007812 115.945312 277.503906 115.332031 C 277 114.71875 276.53125 114.082031 276.089844 113.425781 C 275.648438 112.765625 275.242188 112.085938 274.867188 111.386719 C 274.492188 110.6875 274.15625 109.972656 273.851562 109.238281 C 273.546875 108.507812 273.28125 107.761719 273.050781 107 C 272.820312 106.242188 272.625 105.476562 272.46875 104.695312 C 272.316406 103.917969 272.199219 103.136719 272.121094 102.347656 C 272.042969 101.558594 272 100.765625 272 99.972656 L 272 71.375 C 272 70.960938 272.042969 70.550781 272.121094 70.144531 C 272.203125 69.742188 272.324219 69.347656 272.480469 68.964844 C 272.640625 68.582031 272.832031 68.21875 273.0625 67.875 C 273.292969 67.53125 273.554688 67.210938 273.847656 66.917969 C 274.140625 66.625 274.457031 66.367188 274.800781 66.136719 C 275.144531 65.90625 275.507812 65.710938 275.890625 65.554688 C 276.273438 65.394531 276.667969 65.273438 277.074219 65.195312 C 277.480469 65.113281 277.890625 65.074219 278.304688 65.074219 L 314.132812 65.074219 C 314.546875 65.074219 314.957031 65.113281 315.363281 65.195312 C 315.769531 65.273438 316.164062 65.394531 316.546875 65.554688 C 316.925781 65.710938 317.289062 65.90625 317.636719 66.136719 C 317.980469 66.367188 318.296875 66.625 318.589844 66.917969 C 318.882812 67.210938 319.144531 67.53125 319.375 67.875 C 319.605469 68.21875 319.796875 68.582031 319.957031 68.964844 C 320.113281 69.347656 320.234375 69.742188 320.316406 70.148438 C 320.394531 70.550781 320.4375 70.960938 320.4375 71.375 L 320.4375 99.972656 C 320.433594 100.765625 320.394531 101.558594 320.316406 102.347656 C 320.238281 103.136719 320.121094 103.917969 319.964844 104.695312 C 319.8125 105.476562 319.617188 106.242188 319.386719 107 C 319.15625 107.761719 318.890625 108.507812 318.585938 109.238281 C 318.28125 109.972656 317.945312 110.6875 317.570312 111.386719 C 317.195312 112.085938 316.789062 112.765625 316.347656 113.425781 C 315.90625 114.082031 315.433594 114.71875 314.933594 115.332031 C 314.429688 115.945312 313.898438 116.53125 313.335938 117.09375 C 312.777344 117.65625 312.1875 118.1875 311.574219 118.691406 C 310.964844 119.195312 310.328125 119.664062 309.667969 120.105469 C 309.007812 120.546875 308.328125 120.953125 307.628906 121.328125 C 306.929688 121.703125 306.214844 122.042969 305.484375 122.347656 C 304.75 122.652344 304.003906 122.917969 303.246094 123.148438 C 302.488281 123.378906 301.71875 123.574219 300.941406 123.726562 C 300.164062 123.882812 299.378906 124 298.589844 124.078125 C 297.800781 124.15625 297.011719 124.199219 296.21875 124.199219 Z M 284.621094 77.679688 L 284.621094 99.972656 C 284.621094 100.734375 284.695312 101.492188 284.84375 102.238281 C 284.992188 102.988281 285.214844 103.714844 285.503906 104.417969 C 285.796875 105.121094 286.15625 105.792969 286.578125 106.425781 C 287.003906 107.058594 287.484375 107.644531 288.023438 108.183594 C 288.5625 108.722656 289.148438 109.207031 289.78125 109.628906 C 290.417969 110.050781 291.085938 110.410156 291.789062 110.703125 C 292.496094 110.992188 293.222656 111.214844 293.96875 111.363281 C 294.714844 111.511719 295.472656 111.585938 296.234375 111.585938 C 296.996094 111.585938 297.75 111.511719 298.5 111.363281 C 299.246094 111.214844 299.972656 110.992188 300.679688 110.703125 C 301.382812 110.410156 302.050781 110.050781 302.6875 109.628906 C 303.320312 109.207031 303.90625 108.722656 304.445312 108.183594 C 304.984375 107.644531 305.464844 107.058594 305.890625 106.425781 C 306.3125 105.792969 306.671875 105.121094 306.960938 104.417969 C 307.253906 103.714844 307.476562 102.988281 307.625 102.238281 C 307.773438 101.492188 307.847656 100.734375 307.847656 99.972656 L 307.847656 77.679688 Z M 284.621094 77.679688 " fill-opacity="1" fill-rule="nonzero"/><path fill="#933eff" d="M 339.730469 124.199219 C 338.9375 124.199219 338.144531 124.15625 337.355469 124.078125 C 336.566406 124 335.785156 123.882812 335.007812 123.726562 C 334.226562 123.574219 333.460938 123.378906 332.703125 123.148438 C 331.941406 122.917969 331.199219 122.652344 330.464844 122.347656 C 329.734375 122.042969 329.015625 121.703125 328.316406 121.328125 C 327.617188 120.953125 326.9375 120.546875 326.28125 120.105469 C 325.621094 119.664062 324.984375 119.195312 324.371094 118.691406 C 323.757812 118.1875 323.171875 117.65625 322.613281 117.09375 C 322.050781 116.53125 321.519531 115.945312 321.015625 115.332031 C 320.511719 114.71875 320.042969 114.082031 319.601562 113.425781 C 319.160156 112.765625 318.753906 112.085938 318.378906 111.386719 C 318.003906 110.6875 317.664062 109.972656 317.363281 109.238281 C 317.058594 108.507812 316.789062 107.761719 316.558594 107 C 316.328125 106.242188 316.136719 105.476562 315.980469 104.695312 C 315.824219 103.917969 315.710938 103.136719 315.628906 102.347656 C 315.550781 101.558594 315.511719 100.765625 315.511719 99.972656 L 315.511719 71.375 C 315.511719 70.960938 315.550781 70.550781 315.632812 70.144531 C 315.714844 69.742188 315.832031 69.347656 315.992188 68.964844 C 316.148438 68.582031 316.34375 68.21875 316.574219 67.875 C 316.804688 67.53125 317.066406 67.210938 317.359375 66.917969 C 317.652344 66.625 317.96875 66.367188 318.3125 66.136719 C 318.65625 65.90625 319.019531 65.710938 319.402344 65.554688 C 319.785156 65.394531 320.179688 65.273438 320.585938 65.195312 C 320.992188 65.113281 321.402344 65.074219 321.816406 65.074219 L 357.667969 65.074219 C 358.082031 65.074219 358.492188 65.113281 358.898438 65.195312 C 359.304688 65.273438 359.699219 65.394531 360.078125 65.554688 C 360.460938 65.710938 360.824219 65.90625 361.167969 66.136719 C 361.511719 66.367188 361.832031 66.625 362.125 66.917969 C 362.417969 67.210938 362.679688 67.53125 362.910156 67.875 C 363.136719 68.21875 363.332031 68.582031 363.492188 68.964844 C 363.648438 69.347656 363.769531 69.742188 363.847656 70.148438 C 363.929688 70.550781 363.96875 70.960938 363.96875 71.375 L 363.96875 99.972656 C 363.96875 100.765625 363.929688 101.558594 363.851562 102.347656 C 363.773438 103.136719 363.65625 103.921875 363.5 104.699219 C 363.34375 105.476562 363.152344 106.246094 362.921875 107.007812 C 362.691406 107.765625 362.421875 108.511719 362.117188 109.246094 C 361.816406 109.976562 361.476562 110.695312 361.101562 111.394531 C 360.726562 112.09375 360.320312 112.773438 359.878906 113.433594 C 359.4375 114.089844 358.964844 114.726562 358.460938 115.339844 C 357.957031 115.953125 357.425781 116.542969 356.863281 117.101562 C 356.300781 117.664062 355.714844 118.195312 355.101562 118.699219 C 354.488281 119.203125 353.851562 119.671875 353.191406 120.113281 C 352.53125 120.554688 351.851562 120.960938 351.152344 121.335938 C 350.449219 121.710938 349.734375 122.050781 349 122.351562 C 348.269531 122.65625 347.523438 122.925781 346.761719 123.15625 C 346.003906 123.382812 345.234375 123.578125 344.457031 123.730469 C 343.679688 123.886719 342.894531 124.003906 342.105469 124.082031 C 341.316406 124.160156 340.523438 124.199219 339.730469 124.199219 Z M 328.117188 77.679688 L 328.117188 99.972656 C 328.117188 100.734375 328.191406 101.492188 328.339844 102.238281 C 328.488281 102.988281 328.710938 103.714844 329 104.417969 C 329.292969 105.121094 329.652344 105.792969 330.074219 106.425781 C 330.496094 107.058594 330.980469 107.644531 331.519531 108.183594 C 332.058594 108.722656 332.644531 109.207031 333.277344 109.628906 C 333.910156 110.050781 334.582031 110.410156 335.285156 110.703125 C 335.988281 110.992188 336.714844 111.214844 337.464844 111.363281 C 338.210938 111.511719 338.96875 111.585938 339.730469 111.585938 C 340.492188 111.585938 341.246094 111.511719 341.996094 111.363281 C 342.742188 111.214844 343.46875 110.992188 344.171875 110.703125 C 344.878906 110.410156 345.546875 110.050781 346.179688 109.628906 C 346.816406 109.207031 347.402344 108.722656 347.941406 108.183594 C 348.480469 107.644531 348.960938 107.058594 349.386719 106.425781 C 349.808594 105.792969 350.167969 105.121094 350.457031 104.417969 C 350.75 103.714844 350.96875 102.988281 351.117188 102.238281 C 351.265625 101.492188 351.34375 100.734375 351.34375 99.972656 L 351.34375 77.679688 Z M 328.117188 77.679688 " fill-opacity="1" fill-rule="nonzero"/><path fill="#933eff" d="M 35.269531 344.804688 C 34.855469 344.804688 34.445312 344.761719 34.039062 344.683594 C 33.636719 344.601562 33.242188 344.480469 32.859375 344.324219 C 32.476562 344.164062 32.113281 343.972656 31.769531 343.742188 C 31.425781 343.511719 31.105469 343.25 30.8125 342.957031 C 30.519531 342.664062 30.261719 342.347656 30.03125 342.003906 C 29.800781 341.65625 29.605469 341.292969 29.449219 340.914062 C 29.289062 340.53125 29.167969 340.136719 29.089844 339.730469 C 29.007812 339.324219 28.96875 338.914062 28.96875 338.5 L 28.96875 117.914062 C 28.96875 117.5 29.007812 117.089844 29.089844 116.683594 C 29.167969 116.277344 29.289062 115.882812 29.449219 115.5 C 29.605469 115.117188 29.800781 114.753906 30.03125 114.410156 C 30.261719 114.066406 30.519531 113.75 30.8125 113.457031 C 31.105469 113.164062 31.425781 112.902344 31.769531 112.671875 C 32.113281 112.441406 32.476562 112.246094 32.859375 112.089844 C 33.242188 111.929688 33.636719 111.8125 34.039062 111.730469 C 34.445312 111.648438 34.855469 111.609375 35.269531 111.609375 C 35.683594 111.609375 36.09375 111.648438 36.5 111.730469 C 36.90625 111.8125 37.300781 111.929688 37.683594 112.089844 C 38.066406 112.246094 38.429688 112.441406 38.773438 112.671875 C 39.117188 112.902344 39.433594 113.164062 39.726562 113.457031 C 40.019531 113.75 40.28125 114.066406 40.511719 114.410156 C 40.742188 114.753906 40.933594 115.117188 41.09375 115.5 C 41.25 115.882812 41.371094 116.277344 41.453125 116.683594 C 41.53125 117.089844 41.574219 117.5 41.574219 117.914062 L 41.574219 338.5 C 41.574219 338.914062 41.53125 339.324219 41.453125 339.730469 C 41.371094 340.136719 41.25 340.53125 41.09375 340.914062 C 40.933594 341.292969 40.742188 341.65625 40.511719 342.003906 C 40.28125 342.347656 40.019531 342.664062 39.726562 342.957031 C 39.433594 343.25 39.117188 343.511719 38.773438 343.742188 C 38.429688 343.972656 38.066406 344.164062 37.683594 344.324219 C 37.300781 344.480469 36.90625 344.601562 36.5 344.683594 C 36.09375 344.761719 35.683594 344.804688 35.269531 344.804688 Z M 35.269531 344.804688 " fill-opacity="1" fill-rule="nonzero"/><path fill="#933eff" d="M 339.730469 344.804688 C 339.316406 344.804688 338.90625 344.761719 338.5 344.683594 C 338.09375 344.601562 337.699219 344.480469 337.316406 344.324219 C 336.933594 344.164062 336.570312 343.972656 336.226562 343.742188 C 335.882812 343.511719 335.566406 343.25 335.273438 342.957031 C 334.980469 342.664062 334.71875 342.347656 334.488281 342.003906 C 334.257812 341.65625 334.066406 341.292969 333.90625 340.914062 C 333.75 340.53125 333.628906 340.136719 333.546875 339.730469 C 333.46875 339.324219 333.425781 338.914062 333.425781 338.5 L 333.425781 117.914062 C 333.425781 117.5 333.46875 117.089844 333.546875 116.683594 C 333.628906 116.277344 333.75 115.882812 333.90625 115.5 C 334.066406 115.117188 334.257812 114.753906 334.488281 114.410156 C 334.71875 114.066406 334.980469 113.75 335.273438 113.457031 C 335.566406 113.164062 335.882812 112.902344 336.226562 112.671875 C 336.570312 112.441406 336.933594 112.246094 337.316406 112.089844 C 337.699219 111.929688 338.09375 111.8125 338.5 111.730469 C 338.90625 111.648438 339.316406 111.609375 339.730469 111.609375 C 340.144531 111.609375 340.554688 111.648438 340.960938 111.730469 C 341.363281 111.8125 341.757812 111.929688 342.140625 112.089844 C 342.523438 112.246094 342.886719 112.441406 343.230469 112.671875 C 343.574219 112.902344 343.894531 113.164062 344.1875 113.457031 C 344.480469 113.75 344.738281 114.066406 344.96875 114.410156 C 345.199219 114.753906 345.394531 115.117188 345.550781 115.5 C 345.710938 115.882812 345.832031 116.277344 345.910156 116.683594 C 345.992188 117.089844 346.03125 117.5 346.03125 117.914062 L 346.03125 338.5 C 346.03125 338.914062 345.992188 339.324219 345.910156 339.730469 C 345.832031 340.136719 345.710938 340.53125 345.550781 340.914062 C 345.394531 341.292969 345.199219 341.65625 344.96875 342.003906 C 344.738281 342.347656 344.480469 342.664062 344.1875 342.957031 C 343.894531 343.25 343.574219 343.511719 343.230469 343.742188 C 342.886719 343.972656 342.523438 344.164062 342.140625 344.324219 C 341.757812 344.480469 341.363281 344.601562 340.960938 344.683594 C 340.554688 344.761719 340.144531 344.804688 339.730469 344.804688 Z M 339.730469 344.804688 " fill-opacity="1" fill-rule="nonzero"/><g clip-path="url(#8e57a66063)"><path fill="#933eff" d="M 357.667969 375 L 17.332031 375 C 16.917969 375 16.507812 374.960938 16.101562 374.878906 C 15.695312 374.796875 15.300781 374.679688 14.921875 374.519531 C 14.539062 374.363281 14.175781 374.167969 13.832031 373.9375 C 13.488281 373.707031 13.167969 373.445312 12.875 373.152344 C 12.582031 372.863281 12.320312 372.542969 12.089844 372.199219 C 11.863281 371.855469 11.667969 371.492188 11.507812 371.109375 C 11.351562 370.726562 11.230469 370.332031 11.152344 369.925781 C 11.070312 369.519531 11.03125 369.109375 11.03125 368.699219 L 11.03125 338.5 C 11.03125 338.085938 11.070312 337.675781 11.152344 337.269531 C 11.230469 336.863281 11.351562 336.472656 11.507812 336.089844 C 11.667969 335.707031 11.863281 335.34375 12.089844 335 C 12.320312 334.65625 12.582031 334.335938 12.875 334.042969 C 13.167969 333.75 13.488281 333.488281 13.832031 333.261719 C 14.175781 333.03125 14.539062 332.835938 14.921875 332.679688 C 15.300781 332.519531 15.695312 332.398438 16.101562 332.320312 C 16.507812 332.238281 16.917969 332.199219 17.332031 332.199219 L 357.667969 332.199219 C 358.082031 332.199219 358.492188 332.238281 358.898438 332.320312 C 359.304688 332.398438 359.699219 332.519531 360.078125 332.675781 C 360.460938 332.835938 360.824219 333.03125 361.167969 333.261719 C 361.511719 333.488281 361.832031 333.75 362.125 334.042969 C 362.417969 334.335938 362.679688 334.65625 362.910156 335 C 363.136719 335.34375 363.332031 335.707031 363.492188 336.089844 C 363.648438 336.472656 363.769531 336.863281 363.847656 337.269531 C 363.929688 337.675781 363.96875 338.085938 363.96875 338.5 L 363.96875 368.699219 C 363.96875 369.109375 363.929688 369.519531 363.847656 369.925781 C 363.769531 370.332031 363.648438 370.726562 363.492188 371.109375 C 363.332031 371.492188 363.136719 371.855469 362.910156 372.199219 C 362.679688 372.542969 362.417969 372.863281 362.125 373.152344 C 361.832031 373.445312 361.511719 373.707031 361.167969 373.9375 C 360.824219 374.167969 360.460938 374.363281 360.078125 374.519531 C 359.699219 374.679688 359.304688 374.796875 358.898438 374.878906 C 358.492188 374.960938 358.082031 375 357.667969 375 Z M 23.632812 362.394531 L 351.367188 362.394531 L 351.367188 344.804688 L 23.632812 344.804688 Z M 23.632812 362.394531 " fill-opacity="1" fill-rule="nonzero"/></g><path fill="#933eff" d="M 270.332031 278.453125 L 143.050781 278.453125 C 142.675781 278.453125 142.304688 278.421875 141.9375 278.355469 C 141.570312 278.289062 141.210938 278.191406 140.859375 278.058594 C 140.507812 277.929688 140.171875 277.769531 139.851562 277.582031 C 139.527344 277.390625 139.226562 277.171875 138.941406 276.929688 C 138.660156 276.6875 138.398438 276.417969 138.164062 276.128906 C 137.925781 275.839844 137.71875 275.53125 137.539062 275.203125 C 137.355469 274.875 137.207031 274.535156 137.085938 274.183594 C 136.964844 273.828125 136.875 273.464844 136.820312 273.097656 L 123.03125 182.292969 C 122.964844 181.84375 122.945312 181.394531 122.976562 180.941406 C 123.003906 180.488281 123.082031 180.042969 123.207031 179.605469 C 123.332031 179.171875 123.503906 178.753906 123.71875 178.351562 C 123.933594 177.953125 124.1875 177.582031 124.484375 177.238281 C 124.78125 176.894531 125.109375 176.585938 125.472656 176.3125 C 125.835938 176.039062 126.222656 175.808594 126.636719 175.621094 C 127.046875 175.429688 127.476562 175.285156 127.917969 175.191406 C 128.363281 175.09375 128.8125 175.042969 129.265625 175.042969 L 284.117188 175.042969 C 284.570312 175.042969 285.019531 175.09375 285.464844 175.191406 C 285.90625 175.285156 286.335938 175.429688 286.746094 175.621094 C 287.160156 175.808594 287.546875 176.039062 287.910156 176.3125 C 288.273438 176.585938 288.601562 176.894531 288.898438 177.238281 C 289.191406 177.582031 289.449219 177.953125 289.664062 178.351562 C 289.878906 178.753906 290.050781 179.171875 290.175781 179.605469 C 290.300781 180.042969 290.378906 180.488281 290.40625 180.941406 C 290.4375 181.394531 290.417969 181.84375 290.347656 182.292969 L 276.5625 273.097656 C 276.507812 273.464844 276.417969 273.828125 276.296875 274.183594 C 276.175781 274.535156 276.027344 274.875 275.84375 275.203125 C 275.664062 275.53125 275.457031 275.839844 275.21875 276.128906 C 274.984375 276.417969 274.722656 276.6875 274.441406 276.929688 C 274.15625 277.171875 273.851562 277.390625 273.53125 277.582031 C 273.210938 277.769531 272.871094 277.929688 272.523438 278.058594 C 272.171875 278.191406 271.8125 278.289062 271.445312 278.355469 C 271.074219 278.421875 270.703125 278.453125 270.332031 278.453125 Z M 148.472656 265.847656 L 264.910156 265.847656 L 276.78125 187.648438 L 136.597656 187.648438 Z M 148.472656 265.847656 " fill-opacity="1" fill-rule="nonzero"/><path fill="#933eff" d="M 268.234375 317.433594 L 148.753906 317.433594 C 147.910156 317.433594 147.066406 317.394531 146.226562 317.308594 C 145.386719 317.226562 144.550781 317.101562 143.722656 316.9375 C 142.894531 316.773438 142.078125 316.570312 141.269531 316.324219 C 140.460938 316.078125 139.664062 315.792969 138.882812 315.472656 C 138.105469 315.148438 137.339844 314.785156 136.597656 314.390625 C 135.851562 313.992188 135.128906 313.558594 134.425781 313.085938 C 133.722656 312.617188 133.046875 312.117188 132.390625 311.578125 C 131.738281 311.042969 131.113281 310.476562 130.515625 309.878906 C 129.917969 309.28125 129.351562 308.65625 128.816406 308.003906 C 128.28125 307.351562 127.777344 306.671875 127.308594 305.972656 C 126.839844 305.269531 126.40625 304.546875 126.007812 303.800781 C 125.609375 303.054688 125.25 302.292969 124.925781 301.511719 C 124.601562 300.730469 124.316406 299.9375 124.074219 299.128906 C 123.828125 298.320312 123.621094 297.5 123.457031 296.671875 C 123.292969 295.84375 123.167969 295.011719 123.085938 294.167969 C 123.003906 293.328125 122.960938 292.484375 122.960938 291.640625 C 122.960938 290.796875 123.003906 289.953125 123.085938 289.113281 C 123.167969 288.273438 123.292969 287.4375 123.457031 286.609375 C 123.621094 285.78125 123.828125 284.960938 124.074219 284.152344 C 124.316406 283.34375 124.601562 282.550781 124.925781 281.769531 C 125.25 280.988281 125.609375 280.226562 126.007812 279.484375 C 126.40625 278.738281 126.839844 278.015625 127.308594 277.3125 C 127.777344 276.609375 128.28125 275.929688 128.816406 275.277344 C 129.351562 274.625 129.917969 274 130.515625 273.402344 C 131.113281 272.804688 131.738281 272.238281 132.390625 271.703125 C 133.046875 271.167969 133.722656 270.664062 134.425781 270.195312 C 135.128906 269.726562 135.851562 269.292969 136.597656 268.894531 C 137.339844 268.496094 138.105469 268.136719 138.882812 267.8125 C 139.664062 267.488281 140.460938 267.203125 141.269531 266.957031 C 142.078125 266.714844 142.894531 266.507812 143.722656 266.34375 C 144.550781 266.179688 145.386719 266.054688 146.226562 265.972656 C 147.066406 265.890625 147.910156 265.847656 148.753906 265.847656 L 270.332031 265.847656 C 270.746094 265.847656 271.15625 265.886719 271.558594 265.96875 C 271.964844 266.050781 272.359375 266.167969 272.742188 266.328125 C 273.125 266.484375 273.488281 266.679688 273.832031 266.910156 C 274.175781 267.140625 274.496094 267.402344 274.789062 267.695312 C 275.078125 267.988281 275.339844 268.304688 275.570312 268.648438 C 275.800781 268.992188 275.996094 269.355469 276.152344 269.738281 C 276.3125 270.121094 276.429688 270.515625 276.511719 270.921875 C 276.59375 271.328125 276.632812 271.738281 276.632812 272.152344 C 276.632812 272.566406 276.59375 272.972656 276.511719 273.378906 C 276.429688 273.785156 276.3125 274.179688 276.152344 274.5625 C 275.996094 274.945312 275.800781 275.308594 275.570312 275.652344 C 275.339844 275.996094 275.078125 276.316406 274.789062 276.605469 C 274.496094 276.898438 274.175781 277.160156 273.832031 277.390625 C 273.488281 277.621094 273.125 277.816406 272.742188 277.972656 C 272.359375 278.132812 271.964844 278.25 271.558594 278.332031 C 271.15625 278.414062 270.746094 278.453125 270.332031 278.453125 L 148.753906 278.453125 C 147.890625 278.453125 147.03125 278.539062 146.183594 278.707031 C 145.332031 278.875 144.507812 279.125 143.707031 279.457031 C 142.910156 279.789062 142.148438 280.195312 141.429688 280.675781 C 140.707031 281.15625 140.042969 281.703125 139.429688 282.316406 C 138.816406 282.929688 138.269531 283.59375 137.789062 284.3125 C 137.308594 285.035156 136.902344 285.792969 136.570312 286.59375 C 136.238281 287.394531 135.988281 288.21875 135.820312 289.066406 C 135.652344 289.917969 135.566406 290.773438 135.566406 291.640625 C 135.566406 292.507812 135.652344 293.363281 135.820312 294.214844 C 135.988281 295.0625 136.238281 295.886719 136.570312 296.6875 C 136.902344 297.488281 137.308594 298.25 137.789062 298.96875 C 138.269531 299.6875 138.816406 300.355469 139.429688 300.964844 C 140.042969 301.578125 140.707031 302.125 141.429688 302.605469 C 142.148438 303.085938 142.910156 303.492188 143.707031 303.824219 C 144.507812 304.15625 145.332031 304.40625 146.183594 304.574219 C 147.03125 304.746094 147.890625 304.828125 148.753906 304.828125 L 268.234375 304.828125 C 268.648438 304.828125 269.058594 304.871094 269.464844 304.949219 C 269.871094 305.03125 270.265625 305.152344 270.648438 305.308594 C 271.03125 305.46875 271.394531 305.660156 271.738281 305.890625 C 272.082031 306.121094 272.398438 306.382812 272.691406 306.675781 C 272.984375 306.96875 273.246094 307.285156 273.476562 307.628906 C 273.707031 307.972656 273.898438 308.335938 274.058594 308.71875 C 274.214844 309.101562 274.335938 309.496094 274.417969 309.902344 C 274.496094 310.308594 274.539062 310.71875 274.539062 311.132812 C 274.539062 311.546875 274.496094 311.957031 274.417969 312.363281 C 274.335938 312.765625 274.214844 313.160156 274.058594 313.542969 C 273.898438 313.925781 273.707031 314.289062 273.476562 314.632812 C 273.246094 314.976562 272.984375 315.296875 272.691406 315.589844 C 272.398438 315.882812 272.082031 316.140625 271.738281 316.371094 C 271.394531 316.601562 271.03125 316.796875 270.648438 316.953125 C 270.265625 317.113281 269.871094 317.234375 269.464844 317.3125 C 269.058594 317.394531 268.648438 317.433594 268.234375 317.433594 Z M 268.234375 317.433594 " fill-opacity="1" fill-rule="nonzero"/><path fill="#933eff" d="M 159.042969 344.804688 C 158.402344 344.804688 157.765625 344.773438 157.128906 344.707031 C 156.492188 344.644531 155.859375 344.550781 155.234375 344.425781 C 154.605469 344.304688 153.984375 344.148438 153.371094 343.960938 C 152.761719 343.777344 152.160156 343.5625 151.566406 343.316406 C 150.976562 343.070312 150.398438 342.796875 149.835938 342.496094 C 149.269531 342.195312 148.722656 341.867188 148.191406 341.511719 C 147.65625 341.15625 147.144531 340.773438 146.648438 340.367188 C 146.15625 339.960938 145.679688 339.53125 145.230469 339.082031 C 144.777344 338.628906 144.347656 338.15625 143.941406 337.660156 C 143.535156 337.164062 143.15625 336.652344 142.800781 336.121094 C 142.445312 335.585938 142.113281 335.039062 141.8125 334.476562 C 141.511719 333.910156 141.238281 333.332031 140.992188 332.742188 C 140.75 332.152344 140.535156 331.550781 140.347656 330.9375 C 140.160156 330.324219 140.007812 329.703125 139.882812 329.078125 C 139.757812 328.449219 139.664062 327.816406 139.601562 327.179688 C 139.539062 326.542969 139.507812 325.90625 139.507812 325.265625 C 139.507812 324.625 139.539062 323.988281 139.601562 323.351562 C 139.664062 322.714844 139.757812 322.082031 139.882812 321.453125 C 140.007812 320.824219 140.160156 320.207031 140.347656 319.59375 C 140.535156 318.980469 140.75 318.378906 140.992188 317.789062 C 141.238281 317.195312 141.511719 316.621094 141.8125 316.054688 C 142.113281 315.492188 142.445312 314.941406 142.800781 314.410156 C 143.15625 313.878906 143.535156 313.363281 143.941406 312.871094 C 144.347656 312.375 144.777344 311.902344 145.230469 311.449219 C 145.679688 310.996094 146.15625 310.566406 146.648438 310.164062 C 147.144531 309.757812 147.65625 309.375 148.191406 309.019531 C 148.722656 308.664062 149.269531 308.335938 149.835938 308.035156 C 150.398438 307.734375 150.976562 307.460938 151.566406 307.214844 C 152.160156 306.96875 152.761719 306.753906 153.371094 306.570312 C 153.984375 306.382812 154.605469 306.226562 155.234375 306.101562 C 155.859375 305.976562 156.492188 305.882812 157.128906 305.820312 C 157.765625 305.757812 158.402344 305.726562 159.042969 305.726562 C 159.683594 305.726562 160.324219 305.757812 160.960938 305.820312 C 161.597656 305.882812 162.226562 305.976562 162.855469 306.101562 C 163.484375 306.226562 164.101562 306.382812 164.714844 306.570312 C 165.328125 306.753906 165.929688 306.96875 166.519531 307.214844 C 167.113281 307.460938 167.691406 307.734375 168.253906 308.035156 C 168.820312 308.335938 169.367188 308.664062 169.898438 309.019531 C 170.429688 309.375 170.945312 309.757812 171.4375 310.164062 C 171.933594 310.566406 172.40625 310.996094 172.859375 311.449219 C 173.3125 311.902344 173.742188 312.375 174.148438 312.871094 C 174.554688 313.363281 174.933594 313.878906 175.289062 314.410156 C 175.644531 314.941406 175.972656 315.492188 176.273438 316.054688 C 176.578125 316.621094 176.851562 317.195312 177.09375 317.789062 C 177.339844 318.378906 177.554688 318.980469 177.742188 319.59375 C 177.925781 320.207031 178.082031 320.824219 178.207031 321.453125 C 178.332031 322.082031 178.425781 322.714844 178.488281 323.351562 C 178.550781 323.988281 178.582031 324.625 178.582031 325.265625 C 178.582031 325.90625 178.550781 326.542969 178.484375 327.179688 C 178.421875 327.816406 178.328125 328.449219 178.203125 329.074219 C 178.078125 329.703125 177.921875 330.320312 177.734375 330.933594 C 177.550781 331.546875 177.332031 332.148438 177.089844 332.738281 C 176.84375 333.328125 176.570312 333.90625 176.269531 334.46875 C 175.964844 335.035156 175.636719 335.582031 175.28125 336.113281 C 174.925781 336.644531 174.546875 337.160156 174.140625 337.652344 C 173.734375 338.148438 173.304688 338.621094 172.851562 339.074219 C 172.398438 339.527344 171.925781 339.953125 171.433594 340.359375 C 170.9375 340.765625 170.425781 341.148438 169.894531 341.503906 C 169.363281 341.859375 168.8125 342.1875 168.25 342.488281 C 167.683594 342.789062 167.109375 343.0625 166.515625 343.308594 C 165.925781 343.554688 165.324219 343.769531 164.714844 343.957031 C 164.101562 344.140625 163.480469 344.296875 162.855469 344.421875 C 162.226562 344.550781 161.59375 344.644531 160.957031 344.707031 C 160.320312 344.769531 159.683594 344.800781 159.042969 344.804688 Z M 159.042969 318.332031 C 158.589844 318.332031 158.136719 318.375 157.691406 318.464844 C 157.246094 318.554688 156.8125 318.6875 156.390625 318.859375 C 155.96875 319.035156 155.570312 319.246094 155.191406 319.5 C 154.8125 319.753906 154.464844 320.042969 154.140625 320.363281 C 153.820312 320.683594 153.53125 321.035156 153.28125 321.414062 C 153.027344 321.792969 152.8125 322.191406 152.640625 322.613281 C 152.464844 323.03125 152.332031 323.464844 152.246094 323.914062 C 152.15625 324.359375 152.113281 324.808594 152.113281 325.265625 C 152.113281 325.71875 152.15625 326.171875 152.246094 326.617188 C 152.332031 327.0625 152.464844 327.496094 152.640625 327.917969 C 152.8125 328.339844 153.027344 328.738281 153.28125 329.117188 C 153.53125 329.496094 153.820312 329.84375 154.140625 330.167969 C 154.464844 330.488281 154.8125 330.777344 155.191406 331.03125 C 155.570312 331.28125 155.96875 331.496094 156.390625 331.671875 C 156.8125 331.84375 157.246094 331.976562 157.691406 332.066406 C 158.136719 332.152344 158.589844 332.199219 159.042969 332.199219 C 159.5 332.199219 159.949219 332.152344 160.398438 332.066406 C 160.84375 331.976562 161.277344 331.84375 161.695312 331.671875 C 162.117188 331.496094 162.515625 331.28125 162.894531 331.03125 C 163.273438 330.777344 163.625 330.488281 163.945312 330.167969 C 164.269531 329.84375 164.554688 329.496094 164.808594 329.117188 C 165.0625 328.738281 165.273438 328.339844 165.449219 327.917969 C 165.625 327.496094 165.753906 327.0625 165.84375 326.617188 C 165.933594 326.171875 165.976562 325.71875 165.976562 325.265625 C 165.976562 324.808594 165.929688 324.359375 165.84375 323.914062 C 165.753906 323.46875 165.621094 323.035156 165.445312 322.613281 C 165.273438 322.191406 165.058594 321.792969 164.804688 321.414062 C 164.554688 321.035156 164.265625 320.6875 163.945312 320.367188 C 163.621094 320.042969 163.273438 319.757812 162.894531 319.503906 C 162.515625 319.25 162.117188 319.035156 161.695312 318.863281 C 161.277344 318.6875 160.84375 318.554688 160.394531 318.46875 C 159.949219 318.378906 159.5 318.332031 159.042969 318.332031 Z M 159.042969 318.332031 " fill-opacity="1" fill-rule="nonzero"/><path fill="#933eff" d="M 248.546875 344.804688 C 247.90625 344.804688 247.269531 344.773438 246.632812 344.707031 C 245.996094 344.644531 245.363281 344.550781 244.734375 344.425781 C 244.109375 344.304688 243.488281 344.148438 242.875 343.960938 C 242.265625 343.777344 241.664062 343.5625 241.070312 343.316406 C 240.480469 343.070312 239.902344 342.796875 239.335938 342.496094 C 238.773438 342.195312 238.226562 341.867188 237.691406 341.511719 C 237.160156 341.15625 236.648438 340.773438 236.152344 340.367188 C 235.660156 339.960938 235.183594 339.53125 234.734375 339.082031 C 234.28125 338.628906 233.851562 338.15625 233.445312 337.660156 C 233.039062 337.164062 232.65625 336.652344 232.300781 336.121094 C 231.945312 335.585938 231.617188 335.039062 231.316406 334.476562 C 231.015625 333.910156 230.742188 333.332031 230.496094 332.742188 C 230.253906 332.152344 230.035156 331.550781 229.851562 330.9375 C 229.664062 330.324219 229.511719 329.703125 229.386719 329.078125 C 229.261719 328.449219 229.167969 327.816406 229.105469 327.179688 C 229.042969 326.542969 229.011719 325.90625 229.011719 325.265625 C 229.011719 324.625 229.042969 323.988281 229.105469 323.351562 C 229.167969 322.714844 229.261719 322.082031 229.386719 321.453125 C 229.511719 320.824219 229.664062 320.207031 229.851562 319.59375 C 230.035156 318.980469 230.253906 318.378906 230.496094 317.789062 C 230.742188 317.195312 231.015625 316.621094 231.316406 316.054688 C 231.617188 315.492188 231.945312 314.941406 232.300781 314.410156 C 232.65625 313.878906 233.039062 313.363281 233.445312 312.871094 C 233.851562 312.375 234.28125 311.902344 234.734375 311.449219 C 235.183594 310.996094 235.660156 310.566406 236.152344 310.164062 C 236.648438 309.757812 237.160156 309.375 237.691406 309.019531 C 238.226562 308.664062 238.773438 308.335938 239.335938 308.035156 C 239.902344 307.734375 240.480469 307.460938 241.070312 307.214844 C 241.664062 306.96875 242.265625 306.753906 242.875 306.570312 C 243.488281 306.382812 244.109375 306.226562 244.734375 306.101562 C 245.363281 305.976562 245.996094 305.882812 246.632812 305.820312 C 247.269531 305.757812 247.90625 305.726562 248.546875 305.726562 C 249.1875 305.726562 249.824219 305.757812 250.460938 305.820312 C 251.101562 305.882812 251.730469 305.976562 252.359375 306.101562 C 252.988281 306.226562 253.605469 306.382812 254.21875 306.570312 C 254.832031 306.753906 255.433594 306.96875 256.023438 307.214844 C 256.617188 307.460938 257.195312 307.734375 257.757812 308.035156 C 258.320312 308.335938 258.871094 308.664062 259.402344 309.019531 C 259.933594 309.375 260.449219 309.757812 260.941406 310.164062 C 261.4375 310.566406 261.910156 310.996094 262.363281 311.449219 C 262.816406 311.902344 263.246094 312.375 263.652344 312.871094 C 264.054688 313.363281 264.4375 313.878906 264.792969 314.410156 C 265.148438 314.941406 265.476562 315.492188 265.777344 316.054688 C 266.082031 316.621094 266.351562 317.195312 266.597656 317.789062 C 266.84375 318.378906 267.058594 318.980469 267.246094 319.59375 C 267.429688 320.207031 267.585938 320.824219 267.710938 321.453125 C 267.835938 322.082031 267.929688 322.714844 267.992188 323.351562 C 268.054688 323.988281 268.085938 324.625 268.085938 325.265625 C 268.085938 325.90625 268.050781 326.542969 267.988281 327.179688 C 267.925781 327.816406 267.832031 328.449219 267.707031 329.074219 C 267.582031 329.703125 267.425781 330.320312 267.238281 330.933594 C 267.054688 331.546875 266.835938 332.148438 266.59375 332.738281 C 266.347656 333.328125 266.074219 333.90625 265.773438 334.46875 C 265.46875 335.035156 265.140625 335.582031 264.785156 336.113281 C 264.429688 336.644531 264.050781 337.160156 263.644531 337.652344 C 263.238281 338.148438 262.808594 338.621094 262.355469 339.074219 C 261.902344 339.527344 261.429688 339.953125 260.9375 340.359375 C 260.441406 340.765625 259.929688 341.148438 259.398438 341.503906 C 258.863281 341.859375 258.316406 342.1875 257.753906 342.488281 C 257.1875 342.789062 256.613281 343.0625 256.019531 343.308594 C 255.429688 343.554688 254.828125 343.769531 254.214844 343.957031 C 253.605469 344.140625 252.984375 344.296875 252.359375 344.421875 C 251.730469 344.550781 251.097656 344.644531 250.460938 344.707031 C 249.824219 344.769531 249.1875 344.800781 248.546875 344.804688 Z M 248.546875 318.332031 C 248.09375 318.332031 247.640625 318.375 247.195312 318.464844 C 246.75 318.554688 246.316406 318.6875 245.894531 318.859375 C 245.472656 319.035156 245.074219 319.246094 244.695312 319.5 C 244.316406 319.753906 243.96875 320.042969 243.644531 320.363281 C 243.324219 320.683594 243.035156 321.035156 242.785156 321.414062 C 242.53125 321.792969 242.316406 322.191406 242.144531 322.613281 C 241.96875 323.03125 241.835938 323.464844 241.75 323.914062 C 241.660156 324.359375 241.613281 324.808594 241.613281 325.265625 C 241.613281 325.71875 241.660156 326.171875 241.75 326.617188 C 241.835938 327.0625 241.96875 327.496094 242.144531 327.917969 C 242.316406 328.339844 242.53125 328.738281 242.785156 329.117188 C 243.035156 329.496094 243.324219 329.84375 243.644531 330.167969 C 243.96875 330.488281 244.316406 330.777344 244.695312 331.03125 C 245.074219 331.28125 245.472656 331.496094 245.894531 331.671875 C 246.316406 331.84375 246.75 331.976562 247.195312 332.066406 C 247.640625 332.152344 248.09375 332.199219 248.546875 332.199219 C 249.003906 332.199219 249.453125 332.152344 249.898438 332.066406 C 250.347656 331.976562 250.78125 331.84375 251.199219 331.671875 C 251.621094 331.496094 252.019531 331.28125 252.398438 331.03125 C 252.777344 330.777344 253.128906 330.488281 253.449219 330.167969 C 253.773438 329.84375 254.058594 329.496094 254.3125 329.117188 C 254.566406 328.738281 254.777344 328.339844 254.953125 327.917969 C 255.128906 327.496094 255.257812 327.0625 255.347656 326.617188 C 255.4375 326.171875 255.480469 325.71875 255.480469 325.265625 C 255.480469 324.808594 255.433594 324.359375 255.347656 323.914062 C 255.257812 323.46875 255.125 323.035156 254.949219 322.613281 C 254.777344 322.191406 254.5625 321.792969 254.308594 321.414062 C 254.058594 321.039062 253.769531 320.6875 253.449219 320.367188 C 253.125 320.042969 252.777344 319.757812 252.398438 319.503906 C 252.019531 319.25 251.621094 319.035156 251.199219 318.863281 C 250.777344 318.6875 250.347656 318.554688 249.898438 318.46875 C 249.453125 318.378906 249.003906 318.332031 248.546875 318.332031 Z M 248.546875 318.332031 " fill-opacity="1" fill-rule="nonzero"/><path fill="#933eff" d="M 178.117188 278.453125 C 177.742188 278.453125 177.371094 278.417969 177.003906 278.351562 C 176.636719 278.285156 176.277344 278.1875 175.929688 278.058594 C 175.578125 277.929688 175.242188 277.769531 174.921875 277.578125 C 174.597656 277.386719 174.296875 277.171875 174.011719 276.925781 C 173.730469 276.683594 173.46875 276.417969 173.234375 276.125 C 173 275.835938 172.789062 275.527344 172.609375 275.203125 C 172.429688 274.875 172.277344 274.535156 172.15625 274.179688 C 172.039062 273.828125 171.949219 273.464844 171.894531 273.097656 L 158.105469 182.292969 C 158.042969 181.882812 158.023438 181.472656 158.042969 181.058594 C 158.0625 180.644531 158.121094 180.238281 158.21875 179.835938 C 158.320312 179.433594 158.457031 179.046875 158.632812 178.671875 C 158.808594 178.296875 159.019531 177.941406 159.261719 177.609375 C 159.507812 177.277344 159.785156 176.96875 160.089844 176.691406 C 160.394531 176.410156 160.726562 176.164062 161.078125 175.953125 C 161.433594 175.738281 161.804688 175.558594 162.195312 175.417969 C 162.585938 175.277344 162.984375 175.175781 163.394531 175.117188 C 163.800781 175.054688 164.214844 175.03125 164.625 175.050781 C 165.039062 175.070312 165.449219 175.128906 165.847656 175.226562 C 166.25 175.328125 166.640625 175.464844 167.015625 175.640625 C 167.390625 175.816406 167.742188 176.027344 168.074219 176.273438 C 168.410156 176.519531 168.714844 176.792969 168.996094 177.097656 C 169.273438 177.40625 169.519531 177.734375 169.734375 178.089844 C 169.949219 178.441406 170.125 178.816406 170.265625 179.203125 C 170.40625 179.59375 170.507812 179.992188 170.570312 180.402344 L 184.347656 271.207031 C 184.410156 271.613281 184.433594 272.027344 184.414062 272.4375 C 184.394531 272.851562 184.335938 273.261719 184.234375 273.660156 C 184.136719 274.0625 184 274.453125 183.824219 274.828125 C 183.648438 275.203125 183.4375 275.554688 183.191406 275.890625 C 182.945312 276.222656 182.671875 276.527344 182.367188 276.808594 C 182.058594 277.085938 181.730469 277.332031 181.375 277.546875 C 181.019531 277.761719 180.648438 277.9375 180.261719 278.078125 C 179.871094 278.21875 179.472656 278.320312 179.0625 278.382812 C 178.75 278.429688 178.433594 278.453125 178.117188 278.453125 Z M 178.117188 278.453125 " fill-opacity="1" fill-rule="nonzero"/><path fill="#933eff" d="M 235.320312 279.082031 C 235 279.082031 234.683594 279.058594 234.367188 279.011719 C 233.957031 278.949219 233.558594 278.847656 233.167969 278.707031 C 232.78125 278.566406 232.410156 278.390625 232.054688 278.175781 C 231.699219 277.960938 231.371094 277.714844 231.0625 277.4375 C 230.757812 277.160156 230.484375 276.851562 230.238281 276.519531 C 229.992188 276.1875 229.78125 275.832031 229.605469 275.457031 C 229.429688 275.082031 229.292969 274.695312 229.191406 274.292969 C 229.09375 273.890625 229.035156 273.484375 229.015625 273.070312 C 228.996094 272.65625 229.019531 272.246094 229.082031 271.835938 L 242.867188 181.023438 C 242.929688 180.613281 243.03125 180.214844 243.171875 179.828125 C 243.3125 179.4375 243.488281 179.066406 243.703125 178.710938 C 243.917969 178.355469 244.164062 178.027344 244.441406 177.722656 C 244.722656 177.414062 245.027344 177.140625 245.363281 176.894531 C 245.695312 176.648438 246.046875 176.4375 246.421875 176.261719 C 246.796875 176.085938 247.1875 175.949219 247.589844 175.851562 C 247.988281 175.75 248.398438 175.691406 248.8125 175.671875 C 249.222656 175.65625 249.636719 175.675781 250.042969 175.738281 C 250.453125 175.800781 250.851562 175.902344 251.242188 176.042969 C 251.632812 176.183594 252.003906 176.359375 252.359375 176.574219 C 252.710938 176.789062 253.042969 177.035156 253.347656 177.3125 C 253.652344 177.59375 253.929688 177.898438 254.175781 178.230469 C 254.417969 178.566406 254.628906 178.917969 254.804688 179.292969 C 254.980469 179.667969 255.117188 180.054688 255.21875 180.457031 C 255.316406 180.859375 255.375 181.269531 255.394531 181.679688 C 255.414062 182.09375 255.394531 182.503906 255.332031 182.914062 L 241.542969 273.726562 C 241.488281 274.097656 241.398438 274.457031 241.28125 274.8125 C 241.160156 275.164062 241.007812 275.503906 240.828125 275.832031 C 240.648438 276.160156 240.4375 276.46875 240.203125 276.757812 C 239.96875 277.046875 239.707031 277.3125 239.425781 277.558594 C 239.140625 277.800781 238.839844 278.019531 238.515625 278.207031 C 238.195312 278.398438 237.859375 278.558594 237.507812 278.6875 C 237.160156 278.820312 236.800781 278.917969 236.433594 278.984375 C 236.066406 279.050781 235.695312 279.082031 235.320312 279.082031 Z M 235.320312 279.082031 " fill-opacity="1" fill-rule="nonzero"/><path fill="#933eff" d="M 206.691406 278.453125 C 206.277344 278.453125 205.867188 278.414062 205.460938 278.332031 C 205.054688 278.25 204.660156 278.132812 204.277344 277.972656 C 203.898438 277.816406 203.535156 277.621094 203.191406 277.390625 C 202.84375 277.160156 202.527344 276.898438 202.234375 276.605469 C 201.941406 276.316406 201.679688 275.996094 201.449219 275.652344 C 201.222656 275.308594 201.027344 274.945312 200.867188 274.5625 C 200.710938 274.179688 200.589844 273.785156 200.507812 273.378906 C 200.429688 272.972656 200.386719 272.566406 200.386719 272.152344 L 200.386719 181.347656 C 200.386719 180.933594 200.429688 180.523438 200.507812 180.117188 C 200.589844 179.710938 200.710938 179.316406 200.867188 178.933594 C 201.027344 178.554688 201.222656 178.191406 201.449219 177.84375 C 201.679688 177.5 201.941406 177.183594 202.234375 176.890625 C 202.527344 176.597656 202.84375 176.335938 203.191406 176.105469 C 203.535156 175.875 203.898438 175.683594 204.277344 175.523438 C 204.660156 175.367188 205.054688 175.246094 205.460938 175.164062 C 205.867188 175.085938 206.277344 175.042969 206.691406 175.042969 C 207.105469 175.042969 207.515625 175.085938 207.921875 175.164062 C 208.328125 175.246094 208.71875 175.367188 209.101562 175.523438 C 209.484375 175.683594 209.847656 175.875 210.191406 176.105469 C 210.535156 176.335938 210.855469 176.597656 211.148438 176.890625 C 211.441406 177.183594 211.703125 177.5 211.929688 177.84375 C 212.160156 178.191406 212.355469 178.554688 212.515625 178.933594 C 212.671875 179.316406 212.792969 179.710938 212.871094 180.117188 C 212.953125 180.523438 212.992188 180.933594 212.992188 181.347656 L 212.992188 272.152344 C 212.992188 272.566406 212.953125 272.972656 212.871094 273.378906 C 212.792969 273.785156 212.671875 274.179688 212.515625 274.5625 C 212.355469 274.945312 212.160156 275.308594 211.929688 275.652344 C 211.703125 275.996094 211.441406 276.316406 211.148438 276.605469 C 210.855469 276.898438 210.535156 277.160156 210.191406 277.390625 C 209.847656 277.621094 209.484375 277.816406 209.101562 277.972656 C 208.71875 278.132812 208.328125 278.25 207.921875 278.332031 C 207.515625 278.414062 207.105469 278.453125 206.691406 278.453125 Z M 206.691406 278.453125 " fill-opacity="1" fill-rule="nonzero"/><path fill="#933eff" d="M 279.886719 215.515625 L 133.496094 215.515625 C 133.082031 215.515625 132.671875 215.472656 132.265625 215.394531 C 131.859375 215.3125 131.464844 215.191406 131.082031 215.035156 C 130.699219 214.875 130.335938 214.683594 129.992188 214.453125 C 129.648438 214.222656 129.332031 213.960938 129.039062 213.667969 C 128.746094 213.375 128.484375 213.058594 128.253906 212.714844 C 128.023438 212.371094 127.832031 212.007812 127.671875 211.625 C 127.515625 211.242188 127.394531 210.847656 127.3125 210.441406 C 127.234375 210.035156 127.191406 209.625 127.191406 209.210938 C 127.191406 208.796875 127.234375 208.386719 127.3125 207.984375 C 127.394531 207.578125 127.515625 207.183594 127.671875 206.800781 C 127.832031 206.417969 128.023438 206.054688 128.253906 205.710938 C 128.484375 205.367188 128.746094 205.046875 129.039062 204.753906 C 129.332031 204.464844 129.648438 204.203125 129.992188 203.972656 C 130.335938 203.742188 130.699219 203.546875 131.082031 203.390625 C 131.464844 203.230469 131.859375 203.113281 132.265625 203.03125 C 132.671875 202.949219 133.082031 202.910156 133.496094 202.910156 L 279.886719 202.910156 C 280.300781 202.910156 280.710938 202.949219 281.117188 203.03125 C 281.523438 203.113281 281.917969 203.230469 282.300781 203.390625 C 282.679688 203.546875 283.042969 203.742188 283.386719 203.972656 C 283.734375 204.203125 284.050781 204.464844 284.34375 204.753906 C 284.636719 205.046875 284.898438 205.367188 285.128906 205.710938 C 285.355469 206.054688 285.550781 206.417969 285.710938 206.800781 C 285.867188 207.183594 285.988281 207.578125 286.070312 207.984375 C 286.148438 208.386719 286.191406 208.796875 286.191406 209.210938 C 286.191406 209.625 286.148438 210.035156 286.070312 210.441406 C 285.988281 210.847656 285.867188 211.242188 285.710938 211.625 C 285.550781 212.007812 285.355469 212.371094 285.128906 212.714844 C 284.898438 213.058594 284.636719 213.375 284.34375 213.667969 C 284.050781 213.960938 283.734375 214.222656 283.386719 214.453125 C 283.042969 214.683594 282.679688 214.875 282.300781 215.035156 C 281.917969 215.191406 281.523438 215.3125 281.117188 215.394531 C 280.710938 215.472656 280.300781 215.515625 279.886719 215.515625 Z M 279.886719 215.515625 " fill-opacity="1" fill-rule="nonzero"/><path fill="#933eff" d="M 274.5625 250.589844 L 138.820312 250.589844 C 138.40625 250.589844 137.996094 250.546875 137.589844 250.46875 C 137.183594 250.386719 136.792969 250.265625 136.410156 250.109375 C 136.027344 249.949219 135.664062 249.757812 135.320312 249.527344 C 134.976562 249.296875 134.65625 249.035156 134.363281 248.742188 C 134.070312 248.449219 133.808594 248.132812 133.582031 247.789062 C 133.351562 247.441406 133.15625 247.078125 133 246.699219 C 132.839844 246.316406 132.71875 245.921875 132.640625 245.515625 C 132.558594 245.109375 132.519531 244.699219 132.519531 244.285156 C 132.519531 243.871094 132.558594 243.460938 132.640625 243.054688 C 132.71875 242.648438 132.839844 242.257812 133 241.875 C 133.15625 241.492188 133.351562 241.128906 133.582031 240.785156 C 133.808594 240.441406 134.070312 240.121094 134.363281 239.828125 C 134.65625 239.535156 134.976562 239.273438 135.320312 239.046875 C 135.664062 238.816406 136.027344 238.621094 136.410156 238.464844 C 136.792969 238.304688 137.183594 238.183594 137.589844 238.105469 C 137.996094 238.023438 138.40625 237.984375 138.820312 237.984375 L 274.5625 237.984375 C 274.976562 237.984375 275.386719 238.023438 275.789062 238.105469 C 276.195312 238.183594 276.589844 238.304688 276.972656 238.464844 C 277.355469 238.621094 277.71875 238.816406 278.0625 239.046875 C 278.40625 239.273438 278.726562 239.535156 279.019531 239.828125 C 279.3125 240.121094 279.570312 240.441406 279.800781 240.785156 C 280.03125 241.128906 280.226562 241.492188 280.382812 241.875 C 280.542969 242.257812 280.660156 242.648438 280.742188 243.054688 C 280.824219 243.460938 280.863281 243.871094 280.863281 244.285156 C 280.863281 244.699219 280.824219 245.109375 280.742188 245.515625 C 280.660156 245.921875 280.542969 246.316406 280.382812 246.699219 C 280.226562 247.078125 280.03125 247.441406 279.800781 247.789062 C 279.570312 248.132812 279.3125 248.449219 279.019531 248.742188 C 278.726562 249.035156 278.40625 249.296875 278.0625 249.527344 C 277.71875 249.757812 277.355469 249.949219 276.972656 250.109375 C 276.589844 250.265625 276.195312 250.386719 275.789062 250.46875 C 275.386719 250.546875 274.976562 250.589844 274.5625 250.589844 Z M 274.5625 250.589844 " fill-opacity="1" fill-rule="nonzero"/><path fill="#933eff" d="M 129.265625 187.648438 C 128.582031 187.648438 127.917969 187.539062 127.269531 187.324219 C 126.621094 187.105469 126.023438 186.792969 125.480469 186.382812 C 124.933594 185.972656 124.46875 185.484375 124.078125 184.921875 C 123.691406 184.359375 123.402344 183.753906 123.214844 183.097656 C 122.734375 181.457031 122.125 179.871094 121.390625 178.332031 C 120.65625 176.792969 119.800781 175.320312 118.832031 173.917969 C 117.859375 172.515625 116.78125 171.199219 115.597656 169.96875 C 114.414062 168.742188 113.140625 167.613281 111.777344 166.589844 C 110.414062 165.5625 108.976562 164.652344 107.46875 163.859375 C 105.957031 163.066406 104.394531 162.394531 102.777344 161.851562 C 101.160156 161.308594 99.507812 160.898438 97.824219 160.621094 C 96.140625 160.34375 94.449219 160.199219 92.742188 160.195312 L 90.882812 160.195312 C 90.46875 160.195312 90.058594 160.152344 89.652344 160.074219 C 89.246094 159.992188 88.851562 159.871094 88.46875 159.714844 C 88.089844 159.554688 87.726562 159.363281 87.378906 159.132812 C 87.035156 158.902344 86.71875 158.640625 86.425781 158.347656 C 86.132812 158.054688 85.871094 157.738281 85.640625 157.394531 C 85.410156 157.050781 85.21875 156.6875 85.058594 156.304688 C 84.902344 155.921875 84.78125 155.527344 84.699219 155.121094 C 84.621094 154.714844 84.578125 154.304688 84.578125 153.890625 C 84.578125 153.476562 84.621094 153.066406 84.699219 152.664062 C 84.78125 152.257812 84.902344 151.863281 85.058594 151.480469 C 85.21875 151.097656 85.410156 150.734375 85.640625 150.390625 C 85.871094 150.046875 86.132812 149.726562 86.425781 149.433594 C 86.71875 149.144531 87.035156 148.882812 87.378906 148.652344 C 87.726562 148.421875 88.089844 148.226562 88.46875 148.070312 C 88.851562 147.910156 89.246094 147.792969 89.652344 147.710938 C 90.058594 147.628906 90.46875 147.589844 90.882812 147.589844 L 92.742188 147.589844 C 93.933594 147.59375 95.121094 147.644531 96.308594 147.746094 C 97.492188 147.84375 98.675781 147.992188 99.847656 148.1875 C 101.023438 148.378906 102.1875 148.621094 103.34375 148.910156 C 104.5 149.199219 105.640625 149.53125 106.769531 149.910156 C 107.898438 150.289062 109.011719 150.714844 110.105469 151.183594 C 111.199219 151.652344 112.273438 152.164062 113.328125 152.71875 C 114.378906 153.273438 115.410156 153.867188 116.414062 154.503906 C 117.421875 155.140625 118.398438 155.820312 119.351562 156.535156 C 120.304688 157.25 121.222656 158.003906 122.117188 158.792969 C 123.007812 159.582031 123.863281 160.40625 124.691406 161.265625 C 125.515625 162.125 126.304688 163.015625 127.058594 163.933594 C 127.8125 164.855469 128.527344 165.808594 129.203125 166.785156 C 129.882812 167.765625 130.519531 168.769531 131.113281 169.800781 C 131.710938 170.832031 132.265625 171.882812 132.777344 172.957031 C 133.292969 174.035156 133.761719 175.125 134.183594 176.238281 C 134.609375 177.351562 134.988281 178.480469 135.324219 179.621094 C 135.4375 180.019531 135.511719 180.425781 135.546875 180.835938 C 135.582031 181.25 135.574219 181.660156 135.53125 182.070312 C 135.484375 182.484375 135.398438 182.886719 135.273438 183.28125 C 135.144531 183.671875 134.984375 184.050781 134.78125 184.414062 C 134.582031 184.777344 134.347656 185.113281 134.082031 185.429688 C 133.816406 185.746094 133.519531 186.035156 133.199219 186.292969 C 132.875 186.550781 132.527344 186.773438 132.160156 186.964844 C 131.792969 187.152344 131.410156 187.304688 131.011719 187.421875 C 130.441406 187.582031 129.859375 187.65625 129.265625 187.648438 Z M 129.265625 187.648438 " fill-opacity="1" fill-rule="nonzero"/></svg>