<svg xmlns="http://www.w3.org/2000/svg" xmlns:xlink="http://www.w3.org/1999/xlink" width="500" zoomAndPan="magnify" viewBox="0 0 375 374.999991" height="500" preserveAspectRatio="xMidYMid meet" version="1.0"><path fill="#933eff" d="M 360.9375 56.25 L 287.5 56.25 L 287.5 25.5625 C 287.5 11.46875 276.03125 0 261.9375 0 L 200.5625 0 C 186.46875 0 175 11.46875 175 25.5625 L 175 56.25 L 150 56.25 L 150 6.25 C 150 2.796875 147.203125 0 143.75 0 L 31.25 0 C 27.796875 0 25 2.796875 25 6.25 L 25 56.25 L 14.0625 56.25 C 6.308594 56.25 0 62.558594 0 70.3125 L 0 292.1875 C 0 299.941406 6.308594 306.25 14.0625 306.25 L 146.125 306.25 L 139.875 337.5 L 125 337.5 C 107.769531 337.5 93.75 351.519531 93.75 368.75 C 93.75 372.203125 96.546875 375 100 375 L 275 375 C 278.453125 375 281.25 372.203125 281.25 368.75 C 281.25 351.519531 267.230469 337.5 250 337.5 L 235.125 337.5 L 228.875 306.25 L 360.9375 306.25 C 368.691406 306.25 375 299.941406 375 292.1875 L 375 70.3125 C 375 62.558594 368.691406 56.25 360.9375 56.25 Z M 187.5 25.5625 C 187.5 18.359375 193.359375 12.5 200.5625 12.5 L 261.9375 12.5 C 269.140625 12.5 275 18.359375 275 25.5625 L 275 61.9375 C 275 69.140625 269.140625 75 261.9375 75 L 220.671875 75 C 218.835938 75 217.09375 75.804688 215.90625 77.203125 C 208.761719 85.617188 199.078125 91.101562 188.554688 93.003906 C 191.785156 89.925781 194.695312 86.496094 197.214844 82.769531 C 198.226562 81.273438 198.542969 79.414062 198.078125 77.667969 C 197.617188 75.921875 196.421875 74.460938 194.800781 73.664062 C 190.296875 71.441406 187.5 66.949219 187.5 61.9375 Z M 108.519531 45.929688 L 137.5 20.167969 L 137.5 68.472656 Z M 125.535156 75 L 49.464844 75 L 75.984375 54.375 L 83.347656 60.921875 C 84.53125 61.972656 86.015625 62.5 87.5 62.5 C 88.984375 62.5 90.46875 61.972656 91.652344 60.921875 L 99.015625 54.375 Z M 127.3125 12.5 L 87.5 47.886719 L 47.6875 12.5 Z M 37.5 20.167969 L 66.480469 45.929688 L 37.5 68.472656 Z M 250 350 C 258.148438 350 265.097656 355.226562 267.679688 362.5 L 107.320312 362.5 C 109.902344 355.226562 116.851562 350 125 350 Z M 152.625 337.5 L 158.875 306.25 L 216.125 306.25 L 222.375 337.5 Z M 362.5 292.1875 C 362.5 293.050781 361.800781 293.75 360.9375 293.75 L 153.734375 293.75 C 153.722656 293.75 153.710938 293.75 153.699219 293.75 L 14.0625 293.75 C 13.199219 293.75 12.5 293.050781 12.5 292.1875 L 12.5 268.75 L 362.5 268.75 Z M 362.5 256.25 L 12.5 256.25 L 12.5 70.3125 C 12.5 69.449219 13.199219 68.75 14.0625 68.75 L 25 68.75 L 25 81.25 C 25 84.703125 27.796875 87.5 31.25 87.5 L 143.75 87.5 C 147.203125 87.5 150 84.703125 150 81.25 L 150 68.75 L 175.914062 68.75 C 177.160156 73.316406 179.644531 77.421875 183.109375 80.636719 C 178.855469 85.507812 173.683594 89.523438 167.90625 92.414062 L 165.953125 93.390625 C 163.492188 94.621094 162.125 97.320312 162.589844 100.035156 C 163.054688 102.75 165.242188 104.839844 167.976562 105.183594 L 172.824219 105.789062 C 175.308594 106.097656 177.785156 106.25 180.246094 106.25 C 196.578125 106.25 212.1875 99.53125 223.46875 87.5 L 261.9375 87.5 C 273.675781 87.5 283.582031 79.546875 286.570312 68.75 L 360.9375 68.75 C 361.800781 68.75 362.5 69.449219 362.5 70.3125 Z M 362.5 256.25 " fill-opacity="1" fill-rule="nonzero"/><path fill="#933eff" d="M 122.21875 110.355469 C 116.738281 101.589844 105.148438 98.914062 96.378906 104.398438 C 90.082031 108.332031 86.929688 115.421875 87.683594 122.355469 C 79.304688 134.9375 69.617188 146.695312 58.828125 157.3125 L 38.164062 177.644531 L 26.828125 184.730469 C 22.933594 187.164062 20.21875 190.96875 19.1875 195.445312 C 18.15625 199.921875 18.929688 204.527344 21.363281 208.414062 L 29.644531 221.664062 C 32.902344 226.875 38.515625 229.738281 44.25 229.738281 C 47.359375 229.738281 50.507812 228.898438 53.335938 227.128906 L 54.464844 226.421875 L 84.855469 246.8125 C 87.980469 248.914062 91.582031 250.003906 95.265625 250.003906 C 96.480469 250.003906 97.707031 249.886719 98.925781 249.644531 C 103.839844 248.679688 108.082031 245.855469 110.875 241.695312 C 116.632812 233.117188 114.335938 221.449219 105.753906 215.679688 L 95.886719 209.054688 C 108.953125 204.707031 122.4375 201.582031 136.066406 199.742188 C 139.078125 201.636719 142.570312 202.636719 146.109375 202.636719 C 149.5 202.636719 152.933594 201.71875 156.015625 199.789062 C 160.265625 197.136719 163.222656 192.984375 164.347656 188.105469 C 165.472656 183.222656 164.628906 178.199219 161.976562 173.953125 Z M 46.710938 216.527344 C 44.515625 217.898438 41.617188 217.230469 40.246094 215.039062 L 31.960938 201.785156 C 31.296875 200.726562 31.085938 199.472656 31.367188 198.253906 C 31.648438 197.03125 32.390625 195.996094 33.453125 195.332031 L 40.074219 191.191406 L 53.332031 212.390625 Z M 98.785156 226.054688 C 101.648438 227.980469 102.417969 231.871094 100.5 234.726562 C 99.566406 236.117188 98.148438 237.058594 96.511719 237.378906 C 94.875 237.703125 93.214844 237.367188 91.828125 236.433594 L 66.453125 219.410156 L 81.140625 214.210938 Z M 87.828125 198.585938 L 64.585938 206.808594 L 50.019531 183.515625 L 67.59375 166.21875 C 77.179688 156.785156 85.933594 146.496094 93.75 135.558594 L 126.847656 188.5 C 113.59375 190.734375 100.507812 194.101562 87.828125 198.585938 Z M 152.167969 185.296875 C 151.792969 186.921875 150.804688 188.304688 149.390625 189.191406 C 146.464844 191.015625 142.601562 190.125 140.777344 187.203125 L 101.019531 123.609375 C 99.191406 120.6875 100.082031 116.824219 103.003906 114.996094 C 104.035156 114.355469 105.175781 114.046875 106.308594 114.046875 C 108.394531 114.046875 110.433594 115.089844 111.617188 116.984375 L 151.375 180.578125 C 152.261719 181.992188 152.542969 183.667969 152.167969 185.296875 Z M 152.167969 185.296875 " fill-opacity="1" fill-rule="nonzero"/><path fill="#933eff" d="M 327.332031 93.75 L 272.667969 93.75 C 260.167969 93.75 250 103.917969 250 116.417969 L 250 158.582031 C 250 171.082031 260.167969 181.25 272.667969 181.25 L 327.332031 181.25 C 339.832031 181.25 350 171.082031 350 158.582031 L 350 116.417969 C 350 103.917969 339.832031 93.75 327.332031 93.75 Z M 337.5 158.582031 C 337.5 164.1875 332.9375 168.75 327.332031 168.75 L 272.667969 168.75 C 267.0625 168.75 262.5 164.1875 262.5 158.582031 L 262.5 116.417969 C 262.5 110.8125 267.0625 106.25 272.667969 106.25 L 327.332031 106.25 C 332.9375 106.25 337.5 110.8125 337.5 116.417969 Z M 337.5 158.582031 " fill-opacity="1" fill-rule="nonzero"/><path fill="#933eff" d="M 321.964844 132.140625 L 290.714844 113.390625 C 288.785156 112.234375 286.378906 112.203125 284.421875 113.3125 C 282.460938 114.421875 281.25 116.5 281.25 118.75 L 281.25 156.25 C 281.25 158.5 282.460938 160.578125 284.421875 161.6875 C 285.375 162.230469 286.4375 162.5 287.5 162.5 C 288.613281 162.5 289.726562 162.203125 290.714844 161.609375 L 321.964844 142.859375 C 323.847656 141.730469 325 139.695312 325 137.5 C 325 135.304688 323.847656 133.269531 321.964844 132.140625 Z M 293.75 145.210938 L 293.75 129.789062 L 306.601562 137.5 Z M 293.75 145.210938 " fill-opacity="1" fill-rule="nonzero"/><path fill="#933eff" d="M 231.25 31.25 L 256.25 31.25 C 259.703125 31.25 262.5 28.453125 262.5 25 C 262.5 21.546875 259.703125 18.75 256.25 18.75 L 231.25 18.75 C 227.796875 18.75 225 21.546875 225 25 C 225 28.453125 227.796875 31.25 231.25 31.25 Z M 231.25 31.25 " fill-opacity="1" fill-rule="nonzero"/><path fill="#933eff" d="M 200 50 L 256.25 50 C 259.703125 50 262.5 47.203125 262.5 43.75 C 262.5 40.296875 259.703125 37.5 256.25 37.5 L 200 37.5 C 196.546875 37.5 193.75 40.296875 193.75 43.75 C 193.75 47.203125 196.546875 50 200 50 Z M 200 50 " fill-opacity="1" fill-rule="nonzero"/><path fill="#933eff" d="M 200 68.75 L 256.25 68.75 C 259.703125 68.75 262.5 65.953125 262.5 62.5 C 262.5 59.046875 259.703125 56.25 256.25 56.25 L 200 56.25 C 196.546875 56.25 193.75 59.046875 193.75 62.5 C 193.75 65.953125 196.546875 68.75 200 68.75 Z M 200 68.75 " fill-opacity="1" fill-rule="nonzero"/><path fill="#933eff" d="M 260.9375 187.5 L 247.066406 187.5 L 245.039062 179.402344 C 243.476562 173.128906 237.867188 168.75 231.398438 168.75 L 218.601562 168.75 C 212.132812 168.75 206.523438 173.128906 204.960938 179.398438 L 202.933594 187.5 L 189.0625 187.5 C 181.308594 187.5 175 193.808594 175 201.5625 L 175 235.9375 C 175 243.691406 181.308594 250 189.0625 250 L 260.9375 250 C 268.691406 250 275 243.691406 275 235.9375 L 275 201.5625 C 275 193.808594 268.691406 187.5 260.9375 187.5 Z M 217.085938 182.425781 C 217.261719 181.734375 217.882812 181.25 218.601562 181.25 L 231.398438 181.25 C 232.117188 181.25 232.738281 181.734375 232.914062 182.429688 L 234.179688 187.5 L 215.816406 187.5 Z M 208.492188 237.5 L 189.0625 237.5 C 188.199219 237.5 187.5 236.800781 187.5 235.9375 L 187.5 201.5625 C 187.5 200.699219 188.199219 200 189.0625 200 L 208.492188 200 C 203.289062 204.585938 200 211.289062 200 218.75 C 200 226.210938 203.289062 232.914062 208.492188 237.5 Z M 225 231.25 C 218.109375 231.25 212.5 225.640625 212.5 218.75 C 212.5 211.859375 218.109375 206.25 225 206.25 C 231.890625 206.25 237.5 211.859375 237.5 218.75 C 237.5 225.640625 231.890625 231.25 225 231.25 Z M 262.5 235.9375 C 262.5 236.800781 261.800781 237.5 260.9375 237.5 L 241.507812 237.5 C 246.710938 232.914062 250 226.210938 250 218.75 C 250 211.289062 246.710938 204.585938 241.507812 200 L 242.148438 200 C 242.160156 200 242.171875 200 242.183594 200 C 242.191406 200 242.199219 200 242.207031 200 L 260.9375 200 C 261.800781 200 262.5 200.699219 262.5 201.5625 Z M 262.5 235.9375 " fill-opacity="1" fill-rule="nonzero"/><path fill="#933eff" d="M 156.25 287.5 L 218.75 287.5 C 222.203125 287.5 225 284.703125 225 281.25 C 225 277.796875 222.203125 275 218.75 275 L 156.25 275 C 152.796875 275 150 277.796875 150 281.25 C 150 284.703125 152.796875 287.5 156.25 287.5 Z M 156.25 287.5 " fill-opacity="1" fill-rule="nonzero"/></svg>