<svg xmlns="http://www.w3.org/2000/svg" xmlns:xlink="http://www.w3.org/1999/xlink" width="500" zoomAndPan="magnify" viewBox="0 0 375 374.999991" height="500" preserveAspectRatio="xMidYMid meet" version="1.0"><defs><clipPath id="0d5872a8be"><path d="M 3.566406 194 L 371.066406 194 L 371.066406 364.464844 L 3.566406 364.464844 Z M 3.566406 194 " clip-rule="nonzero"/></clipPath><clipPath id="49bcc404d5"><path d="M 140 10.464844 L 236 10.464844 L 236 50 L 140 50 Z M 140 10.464844 " clip-rule="nonzero"/></clipPath></defs><g clip-path="url(#0d5872a8be)"><path fill="#933eff" d="M 366.449219 354.492188 L 348.664062 354.492188 L 348.664062 194.898438 L 282.972656 194.898438 L 282.972656 324.136719 L 294.625 354.566406 L 283.890625 354.566406 L 280.058594 344.601562 L 274.539062 330.113281 L 253.230469 330.113281 L 247.710938 344.601562 L 243.878906 354.566406 L 233.148438 354.566406 L 244.796875 324.136719 L 244.796875 230.847656 L 130.277344 230.847656 L 130.277344 324.136719 L 141.929688 354.566406 L 131.195312 354.566406 L 121.769531 330.039062 L 100.457031 330.039062 L 94.9375 344.527344 L 91.105469 354.492188 L 80.375 354.492188 L 92.027344 324.136719 L 92.027344 194.898438 L 26.332031 194.898438 L 26.332031 354.566406 L 8.550781 354.566406 C 5.789062 354.566406 3.566406 356.789062 3.566406 359.550781 C 3.566406 362.308594 5.789062 364.53125 8.550781 364.53125 L 366.449219 364.53125 C 369.207031 364.53125 371.429688 362.308594 371.429688 359.550781 C 371.507812 356.789062 369.207031 354.492188 366.449219 354.492188 Z M 77.003906 326.820312 C 77.003906 329.578125 74.777344 331.800781 72.019531 331.800781 L 46.339844 331.800781 C 43.582031 331.800781 41.359375 329.578125 41.359375 326.820312 L 41.359375 288.339844 C 41.359375 285.578125 43.582031 283.355469 46.339844 283.355469 L 72.019531 283.355469 C 74.777344 283.355469 77.003906 285.578125 77.003906 288.339844 Z M 77.003906 261.050781 C 77.003906 263.808594 74.777344 266.03125 72.019531 266.03125 L 46.339844 266.03125 C 43.582031 266.03125 41.359375 263.808594 41.359375 261.050781 L 41.359375 222.570312 C 41.359375 219.808594 43.582031 217.585938 46.339844 217.585938 L 72.019531 217.585938 C 74.777344 217.585938 77.003906 219.808594 77.003906 222.570312 Z M 222.183594 354.492188 L 152.734375 354.492188 L 152.734375 257.675781 C 152.734375 254.917969 154.960938 252.695312 157.71875 252.695312 L 217.125 252.695312 C 219.886719 252.695312 222.109375 254.917969 222.109375 257.675781 L 222.109375 354.492188 Z M 333.640625 326.820312 C 333.640625 329.578125 331.417969 331.800781 328.65625 331.800781 L 302.976562 331.800781 C 300.21875 331.800781 297.996094 329.578125 297.996094 326.820312 L 297.996094 288.339844 C 297.996094 285.578125 300.21875 283.355469 302.976562 283.355469 L 328.65625 283.355469 C 331.417969 283.355469 333.640625 285.578125 333.640625 288.339844 Z M 333.640625 261.050781 C 333.640625 263.808594 331.417969 266.03125 328.65625 266.03125 L 302.976562 266.03125 C 300.21875 266.03125 297.996094 263.808594 297.996094 261.050781 L 297.996094 222.570312 C 297.996094 219.808594 300.21875 217.585938 302.976562 217.585938 L 328.65625 217.585938 C 331.417969 217.585938 333.640625 219.808594 333.640625 222.570312 Z M 333.640625 261.050781 " fill-opacity="1" fill-rule="nonzero"/></g><path fill="#933eff" d="M 273.007812 319.996094 L 273.007812 103.832031 L 102.066406 103.832031 L 102.066406 189.683594 C 102.066406 189.761719 102.066406 189.761719 102.066406 189.835938 L 102.066406 319.996094 L 120.234375 319.996094 L 120.234375 225.789062 C 120.234375 223.027344 122.457031 220.804688 125.21875 220.804688 L 249.78125 220.804688 C 252.539062 220.804688 254.761719 223.027344 254.761719 225.789062 L 254.761719 319.996094 Z M 120.082031 124.144531 C 120.082031 121.386719 122.304688 119.164062 125.0625 119.164062 L 249.933594 119.164062 C 252.691406 119.164062 254.917969 121.386719 254.917969 124.144531 L 254.917969 151.128906 C 254.917969 153.886719 252.691406 156.109375 249.933594 156.109375 L 125.0625 156.109375 C 122.304688 156.109375 120.082031 153.886719 120.082031 151.128906 Z M 249.933594 205.476562 L 125.0625 205.476562 C 122.304688 205.476562 120.082031 203.253906 120.082031 200.492188 L 120.082031 173.511719 C 120.082031 170.75 122.304688 168.527344 125.0625 168.527344 L 249.933594 168.527344 C 252.691406 168.527344 254.917969 170.75 254.917969 173.511719 L 254.917969 200.492188 C 254.992188 203.253906 252.691406 205.476562 249.933594 205.476562 Z M 249.933594 205.476562 " fill-opacity="1" fill-rule="nonzero"/><path fill="#933eff" d="M 271.625 79.609375 L 103.371094 79.609375 L 93.253906 93.789062 L 281.746094 93.789062 Z M 271.625 79.609375 " fill-opacity="1" fill-rule="nonzero"/><path fill="#933eff" d="M 355.488281 171.59375 L 282.972656 171.59375 L 282.972656 184.855469 L 365.296875 184.855469 Z M 355.488281 171.59375 " fill-opacity="1" fill-rule="nonzero"/><path fill="#933eff" d="M 92.027344 171.59375 L 19.511719 171.59375 L 9.699219 184.855469 L 92.027344 184.855469 Z M 92.027344 171.59375 " fill-opacity="1" fill-rule="nonzero"/><path fill="#933eff" d="M 162.777344 262.660156 L 182.476562 262.660156 L 182.476562 354.492188 L 162.777344 354.492188 Z M 162.777344 262.660156 " fill-opacity="1" fill-rule="nonzero"/><path fill="#933eff" d="M 192.519531 262.660156 L 212.21875 262.660156 L 212.21875 354.492188 L 192.519531 354.492188 Z M 192.519531 262.660156 " fill-opacity="1" fill-rule="nonzero"/><path fill="#933eff" d="M 308.039062 227.550781 L 323.675781 227.550781 L 323.675781 255.992188 L 308.039062 255.992188 Z M 308.039062 227.550781 " fill-opacity="1" fill-rule="nonzero"/><path fill="#933eff" d="M 308.039062 293.398438 L 323.675781 293.398438 L 323.675781 321.835938 L 308.039062 321.835938 Z M 308.039062 293.398438 " fill-opacity="1" fill-rule="nonzero"/><path fill="#933eff" d="M 51.324219 227.550781 L 66.960938 227.550781 L 66.960938 255.992188 L 51.324219 255.992188 Z M 51.324219 227.550781 " fill-opacity="1" fill-rule="nonzero"/><path fill="#933eff" d="M 51.324219 293.398438 L 66.960938 293.398438 L 66.960938 321.835938 L 51.324219 321.835938 Z M 51.324219 293.398438 " fill-opacity="1" fill-rule="nonzero"/><path fill="#933eff" d="M 130.046875 129.203125 L 244.953125 129.203125 L 244.953125 146.222656 L 130.046875 146.222656 Z M 130.046875 129.203125 " fill-opacity="1" fill-rule="nonzero"/><path fill="#933eff" d="M 130.046875 178.492188 L 244.953125 178.492188 L 244.953125 195.511719 L 130.046875 195.511719 Z M 130.046875 178.492188 " fill-opacity="1" fill-rule="nonzero"/><g clip-path="url(#49bcc404d5)"><path fill="#933eff" d="M 147.445312 32.773438 L 187.539062 49.101562 L 227.628906 32.773438 C 227.628906 32.773438 227.703125 32.773438 227.703125 32.773438 L 235.0625 29.785156 L 187.613281 10.46875 L 140.011719 29.785156 L 147.445312 32.773438 C 147.371094 32.773438 147.371094 32.773438 147.445312 32.773438 Z M 147.445312 32.773438 " fill-opacity="1" fill-rule="nonzero"/></g><path fill="#933eff" d="M 185.621094 59.140625 L 150.511719 44.886719 L 150.511719 69.644531 L 224.484375 69.644531 L 224.484375 44.886719 L 189.378906 59.140625 C 188.152344 59.601562 186.847656 59.601562 185.621094 59.140625 Z M 185.621094 59.140625 " fill-opacity="1" fill-rule="nonzero"/><path fill="#933eff" d="M 248.246094 51.707031 C 251.007812 51.707031 253.230469 49.484375 253.230469 46.722656 L 253.230469 29.785156 C 253.230469 31.855469 252.003906 33.617188 250.085938 34.382812 L 243.1875 37.21875 L 243.1875 46.648438 C 243.265625 49.484375 245.488281 51.707031 248.246094 51.707031 Z M 248.246094 51.707031 " fill-opacity="1" fill-rule="nonzero"/></svg>