<svg xmlns="http://www.w3.org/2000/svg" xmlns:xlink="http://www.w3.org/1999/xlink" width="500" zoomAndPan="magnify" viewBox="0 0 375 374.999991" height="500" preserveAspectRatio="xMidYMid meet" version="1.0"><path fill="#933eff" d="M 27.496094 52.253906 L 196.964844 52.253906 C 201.058594 52.253906 204.496094 54.941406 205.496094 58.902344 C 205.742188 59.851562 206.070312 60.703125 206.460938 61.488281 C 209.410156 67.367188 205.167969 74.246094 198.601562 74.246094 L 32.996094 74.246094 C 26.953125 74.246094 21.992188 79.191406 21.992188 85.25 L 21.992188 250.890625 C 21.992188 256.933594 26.988281 261.878906 32.996094 261.878906 L 318.980469 261.878906 C 324.988281 261.878906 329.984375 256.898438 329.984375 250.890625 L 329.984375 173.761719 C 329.984375 170.222656 331.933594 167.210938 335.140625 165.753906 C 336.386719 165.195312 337.695312 164.605469 338.875 163.9375 C 344.753906 160.644531 351.976562 164.867188 351.976562 171.617188 L 351.976562 281.265625 C 351.976562 296.398438 339.597656 308.777344 324.480469 308.777344 L 27.496094 308.777344 C 12.378906 308.777344 0 296.398438 0 281.265625 L 0 79.75 C 0 64.617188 12.378906 52.253906 27.496094 52.253906 Z M 374.867188 52.46875 C 373.691406 48.980469 372.28125 45.574219 370.660156 42.296875 C 369.53125 40.039062 367.15625 38.808594 364.667969 39.203125 C 357.019531 40.414062 348.914062 38.074219 343.019531 32.179688 C 337.105469 26.28125 334.765625 18.175781 335.976562 10.511719 C 336.371094 8.023438 335.140625 5.648438 332.882812 4.519531 C 329.605469 2.898438 326.21875 1.488281 322.710938 0.3125 C 320.320312 -0.507812 317.765625 0.3125 316.292969 2.359375 C 311.726562 8.628906 304.339844 12.707031 296.003906 12.707031 C 287.652344 12.707031 280.265625 8.628906 275.714844 2.359375 C 274.226562 0.3125 271.671875 -0.492188 269.28125 0.3125 C 265.773438 1.488281 262.386719 2.914062 259.109375 4.519531 C 256.851562 5.648438 255.621094 8.023438 256.015625 10.511719 C 257.226562 18.175781 254.886719 26.28125 248.988281 32.179688 C 243.09375 38.074219 234.988281 40.414062 227.324219 39.203125 C 224.820312 38.808594 222.460938 40.039062 221.332031 42.296875 C 219.710938 45.574219 218.300781 48.980469 217.125 52.46875 C 216.304688 54.875 217.125 57.414062 219.171875 58.902344 C 225.441406 63.457031 229.519531 70.839844 229.519531 79.191406 C 229.519531 87.527344 225.441406 94.929688 219.171875 99.480469 C 217.125 100.972656 216.304688 103.511719 217.125 105.902344 C 218.300781 109.40625 219.710938 112.792969 221.332031 116.070312 C 222.460938 118.347656 224.835938 119.558594 227.324219 119.164062 C 234.988281 117.953125 243.09375 120.292969 248.988281 126.191406 C 254.886719 132.101562 257.226562 140.207031 256.015625 147.855469 C 255.621094 150.359375 256.851562 152.734375 259.109375 153.847656 C 262.386719 155.46875 265.773438 156.878906 269.28125 158.058594 C 271.671875 158.875 274.226562 158.074219 275.714844 156.011719 C 280.265625 149.753906 287.652344 145.675781 296.003906 145.675781 C 304.339844 145.675781 311.726562 149.753906 316.292969 156.011719 C 317.765625 158.074219 320.320312 158.875 322.710938 158.058594 C 326.21875 156.878906 329.605469 155.46875 332.882812 153.847656 C 335.140625 152.734375 336.371094 150.359375 335.976562 147.855469 C 334.765625 140.207031 337.105469 132.101562 343.019531 126.191406 C 348.914062 120.292969 357.019531 117.953125 364.667969 119.164062 C 367.15625 119.558594 369.53125 118.347656 370.660156 116.070312 C 372.28125 112.792969 373.691406 109.40625 374.867188 105.902344 C 375.6875 103.511719 374.886719 100.972656 372.820312 99.480469 C 366.550781 94.929688 362.472656 87.527344 362.472656 79.191406 C 362.472656 70.839844 366.550781 63.457031 372.820312 58.902344 C 374.886719 57.414062 375.6875 54.875 374.867188 52.46875 Z M 296.003906 56.460938 C 308.546875 56.460938 318.71875 66.632812 318.71875 79.191406 C 318.71875 91.734375 308.546875 101.90625 296.003906 101.90625 C 283.445312 101.90625 273.273438 91.734375 273.273438 79.191406 C 273.273438 66.632812 283.445312 56.460938 296.003906 56.460938 Z M 296.003906 40.367188 C 317.441406 40.367188 334.832031 57.738281 334.832031 79.191406 C 334.832031 100.628906 317.441406 118.019531 296.003906 118.019531 C 274.550781 118.019531 257.179688 100.628906 257.179688 79.191406 C 257.179688 57.738281 274.550781 40.367188 296.003906 40.367188 Z M 192.167969 92.226562 L 137.703125 245.125 C 137.324219 246.140625 137.210938 247.042969 137.324219 247.792969 C 137.457031 248.53125 137.914062 249.152344 138.765625 249.660156 C 139.570312 250.152344 140.746094 250.496094 142.335938 250.742188 C 143.925781 250.988281 145.9375 251.117188 148.429688 251.117188 C 150.441406 251.117188 152.097656 251.054688 153.40625 250.90625 C 154.699219 250.742188 155.796875 250.496094 156.664062 250.21875 C 157.53125 249.90625 158.21875 249.496094 158.710938 249.039062 C 159.21875 248.53125 159.597656 247.894531 159.90625 247.105469 L 206.707031 115.59375 C 207.183594 114.253906 207.183594 112.957031 206.707031 111.617188 C 206.460938 110.976562 206.234375 110.320312 206.019531 109.667969 C 203.761719 103.003906 205.398438 97.648438 209.296875 93.0625 C 210.867188 91.210938 209.65625 88.378906 207.25 88.214844 C 206.167969 88.148438 204.941406 88.117188 203.582031 88.117188 C 201.648438 88.117188 199.960938 88.183594 198.601562 88.328125 C 197.226562 88.492188 196.113281 88.738281 195.277344 89.015625 C 194.394531 89.328125 193.753906 89.738281 193.246094 90.261719 C 192.789062 90.753906 192.414062 91.410156 192.167969 92.226562 Z M 134.605469 134.050781 C 134.605469 130.414062 134.246094 128.023438 133.527344 126.84375 C 132.773438 125.664062 131.527344 125.503906 129.792969 126.355469 L 59.949219 160.9375 C 59.507812 161.199219 59.148438 161.527344 58.804688 162.003906 C 58.492188 162.476562 58.214844 163.050781 58.050781 163.835938 C 57.871094 164.574219 57.707031 165.539062 57.59375 166.71875 C 57.460938 167.914062 57.394531 169.308594 57.394531 170.894531 C 57.394531 173.972656 57.59375 176.300781 58.003906 177.855469 C 58.394531 179.410156 59.015625 180.410156 59.851562 180.902344 L 129.792969 215.683594 C 130.691406 216.125 131.445312 216.371094 132.003906 216.402344 C 132.59375 216.453125 133.085938 216.238281 133.460938 215.683594 C 133.871094 215.125 134.148438 214.226562 134.328125 212.949219 C 134.523438 211.671875 134.605469 209.902344 134.605469 207.660156 C 134.605469 205.121094 134.558594 203.089844 134.425781 201.597656 C 134.296875 200.109375 134.082031 198.929688 133.804688 198.03125 C 133.492188 197.160156 133.066406 196.507812 132.460938 196.0625 C 131.871094 195.636719 131.136719 195.230469 130.234375 194.785156 L 78.667969 170.929688 L 131.21875 146.300781 C 131.96875 145.9375 132.527344 145.59375 132.96875 145.21875 C 133.394531 144.839844 133.738281 144.253906 133.96875 143.417969 C 134.214844 142.550781 134.394531 141.386719 134.492188 139.960938 C 134.589844 138.503906 134.605469 136.539062 134.605469 134.050781 Z M 221.707031 147.414062 L 248.039062 159.628906 C 245.042969 155.894531 243.652344 151 244.4375 146.035156 C 244.945312 142.746094 244.242188 139.4375 242.488281 136.703125 L 230.289062 130.613281 C 229.914062 130.644531 229.535156 130.691406 229.160156 130.742188 C 226.425781 131.183594 223.707031 130.957031 221.199219 130.167969 C 220.285156 129.875 219.367188 130.023438 218.597656 130.578125 C 217.8125 131.136719 217.386719 131.953125 217.367188 132.921875 C 217.367188 133.429688 217.367188 133.96875 217.367188 134.542969 C 217.367188 137.097656 217.386719 139.109375 217.484375 140.601562 C 217.597656 142.367188 217.859375 145.003906 219.414062 146.136719 C 219.972656 146.578125 220.742188 146.96875 221.707031 147.414062 Z M 220.710938 195.902344 C 220.003906 196.210938 219.414062 196.554688 219.007812 196.964844 C 218.5625 197.324219 218.238281 197.949219 217.976562 198.816406 C 217.761719 199.667969 217.582031 200.8125 217.484375 202.269531 C 217.386719 203.726562 217.367188 205.726562 217.367188 208.214844 C 217.367188 210.015625 217.417969 211.539062 217.582031 212.71875 C 217.730469 213.898438 218.007812 214.796875 218.417969 215.386719 C 218.792969 216.011719 219.285156 216.355469 219.90625 216.417969 C 220.53125 216.484375 221.25 216.289062 222.085938 215.863281 L 291.925781 181.226562 C 292.367188 181.046875 292.746094 180.703125 293.074219 180.261719 C 293.382812 179.804688 293.679688 179.179688 293.890625 178.394531 C 294.105469 177.59375 294.269531 176.625 294.382812 175.480469 C 294.515625 174.335938 294.578125 172.957031 294.578125 171.371094 C 294.578125 168.273438 294.351562 165.933594 293.890625 164.34375 C 293.417969 162.773438 292.792969 161.808594 292.023438 161.429688 L 288.519531 159.679688 C 287.261719 160.546875 286.128906 161.625 285.195312 162.902344 C 281.660156 167.765625 228.113281 192.429688 220.710938 195.902344 Z M 126.550781 341.824219 L 134.230469 341.824219 C 140.140625 341.824219 145.21875 338.972656 148.3125 333.945312 C 148.984375 332.847656 149.589844 331.703125 150.132812 330.523438 C 152.421875 325.53125 157.125 322.515625 162.625 322.515625 L 189.351562 322.515625 C 194.851562 322.515625 199.550781 325.53125 201.84375 330.523438 C 202.386719 331.703125 202.992188 332.847656 203.664062 333.945312 C 206.757812 338.972656 211.835938 341.824219 217.746094 341.824219 L 225.425781 341.824219 C 237.542969 341.824219 247.433594 351.714844 247.433594 363.832031 L 247.433594 366.925781 C 247.433594 371.480469 243.71875 375.179688 239.164062 375.179688 L 112.8125 375.179688 C 108.257812 375.179688 104.542969 371.480469 104.542969 366.925781 L 104.542969 363.832031 C 104.542969 351.714844 114.433594 341.824219 126.550781 341.824219 Z M 163.296875 278.925781 L 188.679688 278.925781 C 192.199219 278.925781 195.066406 281.808594 195.066406 285.328125 C 195.066406 288.847656 192.199219 291.730469 188.679688 291.730469 L 163.296875 291.730469 C 159.777344 291.730469 156.910156 288.847656 156.910156 285.328125 C 156.910156 281.808594 159.777344 278.925781 163.296875 278.925781 Z M 163.296875 278.925781 " fill-opacity="1" fill-rule="evenodd"/></svg>